<?xml version="1.0" encoding="UTF-8" standalone="no"?>
<!-- Created with Inkscape (http://www.inkscape.org/) -->

<svg
   version="1.1"
   id="svg1413"
   width="120.00052"
   height="41.147999"
   viewBox="0 0 120.00052 41.147999"
   sodipodi:docname="logo-philipibovo-lightblue.png.svg"
   inkscape:version="1.1.1 (c3084ef, 2021-09-22)"
   xmlns:inkscape="http://www.inkscape.org/namespaces/inkscape"
   xmlns:sodipodi="http://sodipodi.sourceforge.net/DTD/sodipodi-0.dtd"
   xmlns="http://www.w3.org/2000/svg"
   xmlns:svg="http://www.w3.org/2000/svg">
  <defs
     id="defs1417" />
  <sodipodi:namedview
     id="namedview1415"
     pagecolor="#ffffff"
     bordercolor="#999999"
     borderopacity="1"
     inkscape:pageshadow="0"
     inkscape:pageopacity="0"
     inkscape:pagecheckerboard="true"
     showgrid="false"
     fit-margin-top="0"
     fit-margin-left="0"
     fit-margin-right="0"
     fit-margin-bottom="0"
     inkscape:zoom="1.3447501"
     inkscape:cx="665.17936"
     inkscape:cy="295.59396"
     inkscape:window-width="2560"
     inkscape:window-height="1027"
     inkscape:window-x="1440"
     inkscape:window-y="25"
     inkscape:window-maximized="1"
     inkscape:current-layer="g1419" />
  <g
     inkscape:groupmode="layer"
     inkscape:label="Image"
     id="g1419"
     transform="translate(-1.3332783,82.504737)">
    <g
       id="g1503"
       transform="matrix(0.090025,0,0,0.090025,1.3143257,-82.879415)">
      <path
         style="fill:#e4f4fa;stroke-width:1.33333"
         d="m 295.66666,439.02373 c 3.11667,-0.28071 8.21667,-0.28071 11.33333,0 3.11667,0.28072 0.56667,0.5104 -5.66666,0.5104 -6.23334,0 -8.78334,-0.22968 -5.66667,-0.5104 z m 733.33334,0 c 3.1166,-0.28071 8.2166,-0.28071 11.3333,0 3.1167,0.28072 0.5667,0.5104 -5.6667,0.5104 -6.2333,0 -8.7833,-0.22968 -5.6666,-0.5104 z m 151,-43.52714 c 0,-0.27686 1.05,-1.32686 2.3333,-2.33333 2.1148,-1.65849 2.1619,-1.61133 0.5034,0.50341 -1.7418,2.221 -2.8367,2.92731 -2.8367,1.82992 z M 149.16325,391.00001 c -1.65849,-2.11475 -1.61133,-2.16191 0.50341,-0.50342 1.28334,1.00647 2.33334,2.05647 2.33334,2.33334 0,1.09738 -1.09492,0.39108 -2.83675,-1.82992 z m -5.9566,-6 -2.53999,-3 3,2.53998 c 2.81926,2.38696 3.60699,3.46002 2.53999,3.46002 -0.25301,0 -1.60301,-1.35 -3,-3 z M 1246.9266,220.66667 c 0.027,-2.2 0.326,-2.93859 0.664,-1.64129 0.3381,1.29729 0.3158,3.09729 -0.049,4 -0.3653,0.9027 -0.6419,-0.15871 -0.6147,-2.35871 z m -0.1547,-30.77777 c 0.064,-1.55327 0.3799,-1.8692 0.8055,-0.80556 0.3852,0.96249 0.3378,2.11249 -0.1052,2.55556 -0.443,0.44305 -0.7581,-0.34446 -0.7002,-1.75 z M 576.36313,168 c 0,-3.3 0.26003,-4.65 0.57783,-3 0.31781,1.65 0.31781,4.35 0,6 -0.3178,1.65 -0.57783,0.3 -0.57783,-3 z m 185.33333,0 c 0,-3.3 0.26003,-4.65 0.57783,-3 0.31781,1.65 0.31781,4.35 0,6 -0.3178,1.65 -0.57783,0.3 -0.57783,-3 z m 28.97019,-76.417211 c 0,-0.229466 1.95,-2.179466 4.33333,-4.333333 l 4.33333,-3.916121 -3.91612,4.333333 c -3.65037,4.039273 -4.75054,4.946203 -4.75054,3.916121 z M 0.33624452,55.333334 C 0.35104372,52.400001 0.62409018,51.356997 0.94301447,53.015546 1.2619387,54.674097 1.2498303,57.074097 0.91610687,58.34888 0.5823834,59.623664 0.32144535,58.266668 0.33624452,55.333334 Z m 1331.99995548,0 c 0.015,-2.933333 0.2879,-3.976337 0.6068,-2.317788 0.3189,1.658551 0.3068,4.058551 -0.027,5.333334 -0.3336,1.274784 -0.5946,-0.08221 -0.5798,-3.015546 z M 248.99999,32.450292 c 0.91667,-0.369882 2.41667,-0.369882 3.33334,0 0.91666,0.369884 0.16666,0.672515 -1.66667,0.672515 -1.83333,0 -2.58333,-0.302631 -1.66667,-0.672515 z m 125.33333,0 c 0.91667,-0.369882 2.41667,-0.369882 3.33334,0 0.91666,0.369884 0.16666,0.672515 -1.66667,0.672515 -1.83333,0 -2.58333,-0.302631 -1.66667,-0.672515 z m 584.69203,-0.04095 c 1.29729,-0.338058 3.09729,-0.315826 4,0.0494 0.90271,0.36523 -0.15871,0.641824 -2.35871,0.61465 -2.2,-0.02717 -2.93858,-0.325997 -1.64129,-0.664056 z m 123.99995,0 c 1.2973,-0.338058 3.0973,-0.315826 4,0.0494 0.9028,0.36523 -0.1587,0.641824 -2.3587,0.61465 -2.2,-0.02717 -2.9385,-0.325997 -1.6413,-0.664056 z M 17.083333,27.089182 c 0.9625,-0.385162 2.1125,-0.337792 2.555556,0.105266 0.443054,0.443056 -0.344445,0.758188 -1.75,0.700294 -1.553257,-0.06397 -1.8692,-0.379922 -0.805556,-0.805556 z m 1295.275367,-0.0132 c 1.2973,-0.338058 3.0973,-0.315826 4,0.0494 0.9027,0.36523 -0.1587,0.641824 -2.3587,0.61465 -2.2,-0.02717 -2.9386,-0.325997 -1.6413,-0.664056 z M 1074.4166,4.4225147 c 0.9625,-0.3851608 2.1125,-0.3377924 2.5556,0.1052627 0.4431,0.4430556 -0.3445,0.7581872 -1.75,0.7002924 -1.5533,-0.063979 -1.8692,-0.3799204 -0.8056,-0.8055551 z"
         id="path1515" />
      <path
         style="fill:#d0ecf7;stroke-width:1.33333"
         d="m 315.66666,460.4503 c 0.91667,-0.36988 2.41667,-0.36988 3.33333,0 0.91667,0.36988 0.16667,0.67252 -1.66666,0.67252 -1.83334,0 -2.58334,-0.30264 -1.66667,-0.67252 z m 702.74994,-0.0277 c 0.9625,-0.38516 2.1125,-0.3378 2.5556,0.1052 0.4431,0.44305 -0.3445,0.75818 -1.75,0.70029 -1.5533,-0.064 -1.8692,-0.37992 -0.8056,-0.80555 z M 286.33333,439.117 c 0.91666,-0.36988 2.41666,-0.36988 3.33333,0 0.91667,0.36988 0.16667,0.67252 -1.66667,0.67252 -1.83333,0 -2.58333,-0.30264 -1.66666,-0.67252 z m 27.3587,-0.0409 c 1.2973,-0.33805 3.0973,-0.31582 4,0.0495 0.90271,0.36524 -0.1587,0.64183 -2.3587,0.61465 -2.2,-0.0272 -2.93859,-0.326 -1.6413,-0.66405 z m 705.97457,0.0409 c 0.9167,-0.36988 2.4167,-0.36988 3.3334,0 0.9166,0.36988 0.1666,0.67252 -1.6667,0.67252 -1.8333,0 -2.5833,-0.30264 -1.6667,-0.67252 z m 26.6667,0 c 0.9167,-0.36988 2.4167,-0.36988 3.3333,0 0.9167,0.36988 0.1667,0.67252 -1.6666,0.67252 -1.8334,0 -2.5834,-0.30264 -1.6667,-0.67252 z M 153.16325,395.00001 c -1.65849,-2.11475 -1.61133,-2.16191 0.50341,-0.50342 1.28334,1.00647 2.33334,2.05647 2.33334,2.33334 0,1.09738 -1.09492,0.39108 -2.83675,-1.82992 z m 352.83674,-7 c 3.61153,-3.66667 6.86642,-6.66667 7.23309,-6.66667 0.36667,0 -2.28823,3 -5.89976,6.66667 -3.61153,3.66666 -6.86643,6.66666 -7.23309,6.66666 -0.36667,0 2.28822,-3 5.89976,-6.66666 z M 1246.7719,225.8889 c 0.064,-1.55327 0.3799,-1.8692 0.8055,-0.80556 0.3852,0.96249 0.3378,2.11249 -0.1052,2.55556 -0.443,0.44305 -0.7581,-0.34446 -0.7002,-1.75 z m 0,-40 c 0.064,-1.55327 0.3799,-1.8692 0.8055,-0.80556 0.3852,0.96249 0.3378,2.11249 -0.1052,2.55556 -0.443,0.44305 -0.7581,-0.34446 -0.7002,-1.75 z M 86.771927,179.22223 c 0.06397,-1.55327 0.379921,-1.8692 0.805556,-0.80556 0.385161,0.96249 0.337792,2.11249 -0.105267,2.55556 -0.443056,0.44305 -0.758188,-0.34445 -0.700293,-1.75 z m 489.333323,-4 c 0.064,-1.55327 0.37992,-1.8692 0.80555,-0.80556 0.38516,0.96249 0.3378,2.11249 -0.1052,2.55556 -0.44305,0.44305 -0.75819,-0.34445 -0.70029,-1.75 z m 185.33333,0 c 0.064,-1.55327 0.37992,-1.8692 0.80555,-0.80556 0.38516,0.96249 0.3378,2.11249 -0.1052,2.55556 -0.44306,0.44305 -0.75819,-0.34445 -0.7003,-1.75 z M 576.10525,160.55556 c 0.064,-1.55326 0.37992,-1.8692 0.80555,-0.80556 0.38516,0.9625 0.3378,2.1125 -0.1052,2.55556 -0.44305,0.44306 -0.75819,-0.34445 -0.70029,-1.75 z M 761.54383,160 c 0,-1.83333 0.30264,-2.58333 0.67252,-1.66666 0.36988,0.91666 0.36988,2.41666 0,3.33333 -0.36988,0.91667 -0.67252,0.16667 -0.67252,-1.66667 z m -216.96106,-70.999999 -3.91612,-4.333333 4.33334,3.916121 c 4.03928,3.650375 4.9462,4.750546 3.91612,4.750546 -0.22947,0 -2.17947,-1.95 -4.33334,-4.333334 z M 130.66666,68.666668 c 1.72233,-1.833334 3.43151,-3.333334 3.79818,-3.333334 0.36666,0 -0.74251,1.5 -2.46484,3.333334 -1.72233,1.833333 -3.43151,3.333333 -3.79817,3.333333 -0.36667,0 0.74251,-1.5 2.46483,-3.333333 z M 0.36315214,65.333334 c 0,-3.3 0.26002132,-4.65 0.57782518,-3 0.31780388,1.65 0.31780388,4.35 0,6 -0.31780386,1.65 -0.57782518,0.3 -0.57782518,-3 z m 1331.99994786,0 c 0,-3.3 0.26,-4.65 0.5778,-3 0.3179,1.65 0.3179,4.35 0,6 -0.3178,1.65 -0.5778,0.3 -0.5778,-3 z M 683.74998,53.755849 c 0.9625,-0.385162 2.11251,-0.337792 2.55556,0.105266 0.44306,0.443056 -0.34445,0.758188 -1.75,0.700294 -1.55326,-0.06397 -1.8692,-0.379922 -0.80556,-0.805556 z M 0.25993162,47.333334 c 0.0271729,-2.2 0.32599811,-2.938581 0.66405598,-1.641291 0.3380579,1.29729 0.3158255,3.09729 -0.0494053,4 -0.36523076,0.90271 -0.64182357,-0.158709 -0.61465068,-2.358709 z m 1331.99996838,0 c 0.027,-2.2 0.326,-2.938581 0.6641,-1.641291 0.338,1.29729 0.3158,3.09729 -0.05,4 -0.3652,0.90271 -0.6418,-0.158709 -0.6146,-2.358709 z M 243.66666,32.450292 c 0.91667,-0.369882 2.41667,-0.369882 3.33333,0 0.91667,0.369884 0.16667,0.672515 -1.66666,0.672515 -1.83334,0 -2.58334,-0.302631 -1.66667,-0.672515 z m 136.69204,-0.04095 c 1.29729,-0.338058 3.09729,-0.315826 4,0.0494 0.9027,0.36523 -0.15871,0.641824 -2.35871,0.61465 -2.2,-0.02717 -2.93859,-0.325997 -1.64129,-0.664056 z m 572.64128,0.04095 c 0.91666,-0.369882 2.41666,-0.369882 3.33333,0 0.91667,0.369884 0.16667,0.672515 -1.66667,0.672515 -1.83333,0 -2.58333,-0.302631 -1.66666,-0.672515 z m 136.08332,-0.02777 c 0.9625,-0.385161 2.1125,-0.337792 2.5556,0.105267 0.443,0.443056 -0.3445,0.758188 -1.75,0.700293 -1.5533,-0.06397 -1.8692,-0.379921 -0.8056,-0.805556 z M 203.74999,8.4225188 c 0.9625,-0.3851608 2.1125,-0.3377924 2.55556,0.1052627 0.44306,0.4430556 -0.34445,0.7581872 -1.75,0.7002924 -1.55326,-0.063979 -1.8692,-0.3799204 -0.80556,-0.8055551 z M 949.08331,7.0891854 c 0.96249,-0.3851608 2.11251,-0.3377924 2.55556,0.1052627 0.44305,0.4430556 -0.34445,0.7581872 -1.75,0.7002924 -1.55327,-0.063979 -1.8692,-0.3799204 -0.80556,-0.8055551 z m 165.33329,0 c 0.9625,-0.3851608 2.1125,-0.3377924 2.5556,0.1052627 0.4431,0.4430556 -0.3445,0.7581872 -1.75,0.7002924 -1.5533,-0.063979 -1.8692,-0.3799204 -0.8056,-0.8055551 z M 238.41666,5.7558521 c 0.96249,-0.3851608 2.11249,-0.3377924 2.55556,0.1052627 0.44305,0.4430556 -0.34445,0.7581872 -1.75,0.7002924 -1.55327,-0.063979 -1.8692,-0.3799204 -0.80556,-0.8055551 z m 727.99998,0 c 0.9625,-0.3851608 2.11251,-0.3377924 2.55556,0.1052627 0.44306,0.4430556 -0.34445,0.7581872 -1.75,0.7002924 -1.55326,-0.063979 -1.8692,-0.3799204 -0.80556,-0.8055551 z m 129.33336,0 c 0.9625,-0.3851608 2.1125,-0.3377924 2.5555,0.1052627 0.4431,0.4430556 -0.3444,0.7581872 -1.75,0.7002924 -1.5532,-0.063979 -1.8692,-0.3799204 -0.8055,-0.8055551 z M 262.99999,4.4142327 c 1.28334,-0.3353701 3.38334,-0.3353701 4.66667,0 1.28333,0.33537 0.23333,0.6097638 -2.33333,0.6097638 -2.56667,0 -3.61667,-0.2743938 -2.33334,-0.6097638 z m 80.02537,-0.00489 c 1.2973,-0.3380579 3.0973,-0.3158255 4,0.049405 0.90271,0.3652308 -0.1587,0.6418236 -2.3587,0.6146507 -2.2,-0.027173 -2.93859,-0.3259981 -1.6413,-0.6640557 z m 646.64128,0.00489 c 1.28334,-0.3353701 3.38334,-0.3353701 4.66667,0 1.28333,0.33537 0.23333,0.6097638 -2.33333,0.6097638 -2.56667,0 -3.61667,-0.2743938 -2.33334,-0.6097638 z M 1069,4.4502927 c 0.9166,-0.369883 2.4166,-0.369883 3.3333,0 0.9167,0.3698831 0.1667,0.6725147 -1.6667,0.6725147 -1.8333,0 -2.5833,-0.3026316 -1.6666,-0.6725147 z"
         id="path1513" />
      <path
         style="fill:#b7e2f4;stroke-width:1.33333"
         d="m 269.08333,460.42253 c 0.96249,-0.38516 2.11249,-0.3378 2.55556,0.1052 0.44305,0.44305 -0.34446,0.75818 -1.75,0.70029 -1.55327,-0.064 -1.8692,-0.37992 -0.80556,-0.80555 z m 41.25,0.0277 c 0.91666,-0.36988 2.41666,-0.36988 3.33333,0 0.91667,0.36988 0.16667,0.67252 -1.66667,0.67252 -1.83333,0 -2.58333,-0.30264 -1.66666,-0.67252 z m 711.99997,0 c 0.9167,-0.36988 2.4167,-0.36988 3.3333,0 0.9167,0.36988 0.1667,0.67252 -1.6666,0.67252 -1.8334,0 -2.5834,-0.30264 -1.6667,-0.67252 z m 41.3333,0 c 0.9167,-0.36988 2.4167,-0.36988 3.3334,0 0.9166,0.36988 0.1666,0.67252 -1.6667,0.67252 -1.8333,0 -2.5833,-0.30264 -1.6667,-0.67252 z M 282.41666,439.08919 c 0.96249,-0.38516 2.11249,-0.3378 2.55556,0.1052 0.44305,0.44306 -0.34445,0.75819 -1.75,0.7003 -1.55327,-0.064 -1.8692,-0.37992 -0.80556,-0.80555 z m 733.33334,0 c 0.9625,-0.38516 2.1125,-0.3378 2.5555,0.1052 0.4431,0.44306 -0.3444,0.75819 -1.75,0.7003 -1.5532,-0.064 -1.8692,-0.37992 -0.8055,-0.80555 z m 36,0 c 0.9625,-0.38516 2.1125,-0.3378 2.5555,0.1052 0.4431,0.44306 -0.3444,0.75819 -1.75,0.7003 -1.5532,-0.064 -1.8692,-0.37992 -0.8055,-0.80555 z m -569.08335,-63.5926 c 0,-0.27686 1.05,-1.32686 2.33334,-2.33333 2.11474,-1.65849 2.1619,-1.61133 0.50341,0.50341 -1.74183,2.221 -2.83675,2.92731 -2.83675,1.82992 z m 9.33334,-9.49658 c 1.72233,-1.83334 3.4315,-3.33334 3.79817,-3.33334 0.36667,0 -0.74251,1.5 -2.46484,3.33334 -1.72233,1.83333 -3.43151,3.33333 -3.79817,3.33333 -0.36667,0 0.7425,-1.5 2.46484,-3.33333 z M 85.760097,205.33334 c 0,-4.76667 0.241993,-6.71667 0.537762,-4.33334 0.295768,2.38334 0.295768,6.28334 0,8.66667 C 86.00209,212.05 85.760097,210.1 85.760097,205.33334 Z M 1246.7719,181.8889 c 0.064,-1.55327 0.3799,-1.8692 0.8055,-0.80556 0.3852,0.96249 0.3378,2.11249 -0.1052,2.55556 -0.443,0.44305 -0.7581,-0.34446 -0.7002,-1.75 z m -670.66665,-2.66667 c 0.064,-1.55327 0.37992,-1.8692 0.80555,-0.80556 0.38516,0.96249 0.3378,2.11249 -0.1052,2.55556 -0.44305,0.44305 -0.75819,-0.34445 -0.70029,-1.75 z M 631.33332,164 c 1.32732,-1.46666 2.7133,-2.66666 3.07997,-2.66666 0.36667,0 -0.41932,1.2 -1.74664,2.66666 -1.32732,1.46667 -2.71331,2.66667 -3.07997,2.66667 -0.36667,0 0.41932,-1.2 1.74664,-2.66667 z M 0.30933693,74.666668 c 0,-2.566667 0.27439368,-3.616667 0.60976373,-2.333334 0.33537004,1.283334 0.33537004,3.383334 0,4.666667 -0.33537005,1.283333 -0.60976373,0.233333 -0.60976373,-2.333333 z m 1331.99996307,0 c 0,-2.566667 0.2744,-3.616667 0.6098,-2.333334 0.3353,1.283334 0.3353,3.383334 0,4.666667 -0.3354,1.283333 -0.6098,0.233333 -0.6098,-2.333333 z m -132.4794,-9 c -1.6585,-2.114742 -1.6113,-2.161902 0.5034,-0.503407 2.221,1.741825 2.9273,2.83674 1.8299,2.83674 -0.2768,0 -1.3268,-1.05 -2.3333,-2.333333 z M 1093.0833,32.422515 c 0.9625,-0.385161 2.1125,-0.337792 2.5556,0.105267 0.443,0.443056 -0.3445,0.758188 -1.75,0.700293 -1.5533,-0.06397 -1.8692,-0.379921 -0.8056,-0.805556 z m 185.3333,-8 c 0.9625,-0.385161 2.1125,-0.337792 2.5556,0.105267 0.443,0.443056 -0.3445,0.758188 -1.75,0.700293 -1.5533,-0.06397 -1.8692,-0.379921 -0.8056,-0.805556 z M 107.75,19.089182 c 0.9625,-0.385162 2.1125,-0.337792 2.55555,0.105266 0.44306,0.443056 -0.34444,0.758188 -1.75,0.700294 -1.55325,-0.06397 -1.8692,-0.379922 -0.80555,-0.805556 z M 242.41666,5.7558481 c 0.96249,-0.3851608 2.11249,-0.3377924 2.55556,0.1052627 0.44305,0.4430556 -0.34445,0.7581872 -1.75,0.7002924 -1.55327,-0.063979 -1.8692,-0.3799204 -0.80556,-0.8055551 z m 122.66666,0 c 0.9625,-0.3851608 2.11251,-0.3377924 2.55556,0.1052627 0.44306,0.4430556 -0.34445,0.7581872 -1.75,0.7002924 -1.55326,-0.063979 -1.8692,-0.3799204 -0.80556,-0.8055551 z m 605.33332,0 c 0.9625,-0.3851608 2.11251,-0.3377924 2.55556,0.1052627 0.44306,0.4430556 -0.34445,0.7581872 -1.75,0.7002924 -1.55326,-0.063979 -1.8692,-0.3799204 -0.80556,-0.8055551 z m 121.33336,0 c 0.9625,-0.3851608 2.1125,-0.3377924 2.5555,0.1052627 0.4431,0.4430556 -0.3444,0.7581872 -1.75,0.7002924 -1.5532,-0.063979 -1.8692,-0.3799204 -0.8055,-0.8055551 z M 270.33333,4.4502925 c 0.91666,-0.3698831 2.41666,-0.3698831 3.33333,0 0.91667,0.369883 0.16667,0.6725146 -1.66667,0.6725146 -1.83333,0 -2.58333,-0.3026316 -1.66666,-0.6725146 z m 66.02537,-0.040947 c 1.29729,-0.3380579 3.09729,-0.3158255 4,0.049405 0.9027,0.3652308 -0.15871,0.6418236 -2.35871,0.6146507 -2.2,-0.027173 -2.93859,-0.3259981 -1.64129,-0.6640557 z m 661.33332,0 c 1.29729,-0.3380579 3.09728,-0.3158255 3.99998,0.049405 0.9027,0.3652308 -0.1587,0.6418236 -2.35869,0.6146507 -2.2,-0.027173 -2.93859,-0.3259981 -1.64129,-0.6640557 z m 65.33328,0 c 1.2973,-0.3380579 3.0973,-0.3158255 4,0.049405 0.9028,0.3652308 -0.1587,0.6418236 -2.3587,0.6146507 -2.2,-0.027173 -2.9385,-0.3259981 -1.6413,-0.6640557 z"
         id="path1511" />
      <path
         style="fill:#a6dcf1;stroke-width:1.33333"
         d="m 85.593263,216.66667 c 0.02717,-2.2 0.325998,-2.93859 0.664056,-1.64129 0.338058,1.29729 0.315826,3.09729 -0.0494,4 -0.365236,0.9027 -0.641829,-0.15871 -0.614656,-2.35871 z m -0.0494,-22 c 0,-1.83333 0.302631,-2.58333 0.672515,-1.66667 0.369882,0.91667 0.369882,2.41667 0,3.33334 -0.369889,0.91666 -0.67252,0.16666 -0.67252,-1.66667 z M 0.21052631,81.333335 c 0,-1.833334 0.30263157,-2.583334 0.6725146,-1.666667 0.36988299,0.916666 0.36988299,2.416667 0,3.333333 -0.36988303,0.916667 -0.6725146,0.166667 -0.6725146,-1.666666 z m 1331.99997369,0 c 0,-1.833334 0.3026,-2.583334 0.6725,-1.666667 0.3699,0.916666 0.3699,2.416667 0,3.333333 -0.3699,0.916667 -0.6725,0.166667 -0.6725,-1.666666 z M 669.08332,55.089182 c 0.96249,-0.385161 2.1125,-0.337792 2.55556,0.105267 0.44305,0.443056 -0.34446,0.758188 -1.75,0.700293 -1.55327,-0.06397 -1.8692,-0.379921 -0.80556,-0.805556 z m -308,-49.3333339 c 0.9625,-0.3851608 2.11251,-0.3377924 2.55556,0.1052627 0.44306,0.4430556 -0.34445,0.7581872 -1.75,0.7002924 -1.55326,-0.063979 -1.8692,-0.3799204 -0.80556,-0.8055551 z M 276.3587,4.4093458 c 1.29729,-0.3380579 3.09729,-0.3158255 4,0.049405 0.90271,0.3652308 -0.15871,0.6418236 -2.35871,0.6146507 -2.2,-0.027173 -2.93858,-0.3259981 -1.64129,-0.6640557 z m 55.39129,0.013173 c 0.9625,-0.3851608 2.11249,-0.3377924 2.55556,0.1052627 0.44305,0.4430556 -0.34445,0.7581872 -1.75,0.7002924 -1.55326,-0.063979 -1.8692,-0.3799204 -0.80556,-0.8055551 z m 672.00001,0 c 0.9625,-0.3851608 2.1125,-0.3377924 2.5555,0.1052627 0.4431,0.4430556 -0.3444,0.7581872 -1.75,0.7002924 -1.5532,-0.063979 -1.8692,-0.3799204 -0.8055,-0.8055551 z m 53.25,0.027777 c 0.9166,-0.3698831 2.4166,-0.3698831 3.3333,0 0.9167,0.369883 0.1667,0.6725146 -1.6667,0.6725146 -1.8333,0 -2.5833,-0.3026316 -1.6666,-0.6725146 z"
         id="path1509" />
      <path
         style="fill:#9bd7f1;stroke-width:1.33333"
         d="m 305.08333,460.42253 c 0.96249,-0.38516 2.11249,-0.3378 2.55556,0.1052 0.44305,0.44305 -0.34446,0.75818 -1.75,0.70029 -1.55327,-0.064 -1.8692,-0.37992 -0.80556,-0.80555 z M 1214,398.66667 c 1.3273,-1.46666 2.7133,-2.66666 3.0799,-2.66666 0.3667,0 -0.4193,1.2 -1.7466,2.66666 -1.3273,1.46667 -2.7133,2.66667 -3.08,2.66667 -0.3666,0 0.4193,-1.2 1.7467,-2.66667 z M 849.16323,371.00001 c -1.65849,-2.11475 -1.61133,-2.16191 0.50342,-0.50342 2.221,1.74183 2.9273,2.83675 1.82992,2.83675 -0.27687,0 -1.32687,-1.05 -2.33334,-2.33333 z M 0.21052631,86.666668 c 0,-1.833333 0.30263157,-2.583333 0.6725146,-1.666667 0.36988299,0.916667 0.36988299,2.416667 0,3.333334 -0.36988303,0.916666 -0.6725146,0.166666 -0.6725146,-1.666667 z m 1331.99997369,0 c 0,-1.833333 0.3026,-2.583333 0.6725,-1.666667 0.3699,0.916667 0.3699,2.416667 0,3.333334 -0.3699,0.916666 -0.6725,0.166666 -0.6725,-1.666667 z M 326.33333,4.4502925 c 0.91666,-0.3698831 2.41666,-0.3698831 3.33333,0 0.91667,0.369883 0.16667,0.6725146 -1.66667,0.6725146 -1.83333,0 -2.58333,-0.3026316 -1.66666,-0.6725146 z M 1007.75,4.4225147 c 0.9625,-0.3851608 2.1125,-0.3377924 2.5555,0.1052627 0.4431,0.4430556 -0.3444,0.7581872 -1.75,0.7002924 -1.5532,-0.063979 -1.8692,-0.3799204 -0.8055,-0.8055551 z m 43.9166,0.027777 c 0.9167,-0.3698831 2.4167,-0.3698831 3.3334,0 0.9166,0.369883 0.1666,0.6725146 -1.6667,0.6725146 -1.8333,0 -2.5833,-0.3026316 -1.6667,-0.6725146 z"
         id="path1507" />
      <path
         style="fill:#96c7fd;stroke-width:1.33333"
         d="m 265.33333,459.77774 c -30.22316,-2.84673 -68.7518,-13.5136 -95.14324,-26.34096 C 128.09458,412.97659 99.293924,383.03283 84.077027,343.90586 77.782213,327.72011 67.630233,285.24335 54.040043,218.22852 43.055204,164.06099 40.806051,154.71732 37.060312,147.6896 32.119589,138.41986 25.262643,132.75594 17.473106,131.51034 14.566969,131.04563 11.318074,129.79427 10.25334,128.72953 9.188606,127.6648 8.0273066,127.08381 7.6726745,127.43844 6.3114318,128.79968 2.5083997,120.96146 1.2992126,114.30244 0.53644936,110.10189 0.43723884,93.470487 1.0494763,72.437276 1.9826316,40.379045 2.2791863,37.304803 4.6961369,34.634103 8.6070591,30.312582 13.884598,28 19.835809,28 25.762767,28 153.50428,15.381035 167.63349,13.399782 239.50319,3.3219402 335.08494,2.0175235 407.99999,10.119468 c 26.82221,2.980346 46.30296,6.531515 80.5113,14.676503 63.19894,15.047635 127.48581,26.560683 166.15536,29.756539 17.65188,1.458844 34.57995,0.322396 69.33333,-4.654617 C 759.83857,44.765467 818.46563,32.788162 864.54997,21.184018 913.6449,8.8217972 995.89998,2.3162455 1066.198,5.2356781 c 38.3406,1.5922588 67.3819,3.9321407 100.4686,8.0948429 15.9837,2.010929 100.1952,10.499786 150.4956,15.170557 4.3042,0.399681 6.9116,1.624053 9.9686,4.680994 l 4.1397,4.139743 1.0274,33.672426 c 1.0915,35.777679 0.6539,44.371659 -2.6182,51.405599 -2.2131,4.75767 -8.6139,8.68404 -16.4806,10.10961 -2.9105,0.52744 -6.6381,2.70731 -9.4671,5.53625 -9.6119,9.61192 -10.661,13.09212 -23.6999,78.62097 -11.7084,58.84188 -22.3833,105.23183 -28.164,122.39153 -3.6961,10.97157 -10.6968,25.36434 -16.8069,34.55325 -5.6259,8.46058 -16.6281,22.22336 -17.8462,22.32382 -0.4317,0.0356 -5.0109,4.18308 -10.1759,9.21662 -5.165,5.03353 -11.2617,9.98 -13.5483,10.99214 -2.2866,1.01215 -4.1575,2.23679 -4.1575,2.7214 0,0.48463 -4.65,3.60551 -10.3333,6.93528 -31.7603,18.60786 -72.152,30.76318 -114.1179,34.34215 -32.2356,2.74915 -84.0726,-2.18897 -120.21395,-11.45187 -24.88537,-6.37804 -52.91901,-17.05966 -55.64776,-21.20342 -0.53877,-0.81816 -0.98877,-0.98028 -1,-0.36028 -0.0477,2.63596 -33.32284,-18.57948 -43.83282,-27.9468 -14.57374,-12.98926 -31.76626,-31.67702 -31.18759,-33.89999 0.18333,-0.70427 -0.26993,-1.28049 -1.00727,-1.28049 -1.37036,0 -13.33204,-15.85535 -13.32818,-17.66667 10e-4,-0.55 -1.14344,-2.14556 -2.54358,-3.5457 -6.71392,-6.71392 -38.35796,-65.58014 -36.69744,-68.2669 0.40362,-0.65307 0.16382,-1.1874 -0.53289,-1.1874 -1.67113,0 -13.16783,-28.05842 -23.765,-58 -4.67185,-13.2 -8.63633,-24.6 -8.80996,-25.33334 -0.17362,-0.73333 -0.61568,-1.63333 -0.98234,-2 -0.36667,-0.36666 -3.57708,-5.01168 -7.13427,-10.32225 -12.71552,-18.98323 -28.29032,-29.70243 -44.73015,-30.78509 -11.82164,-0.77854 -20.82364,1.56892 -30.65794,7.99465 -16.4544,10.75131 -28.99115,30.13668 -39.32568,60.80867 -8.04076,23.86424 -16.84917,45.48246 -28.23424,69.29442 -11.02391,23.0566 -27.90993,52.34294 -30.18007,52.34294 -0.83349,0 -1.14256,0.37286 -0.68682,0.8286 1.10737,1.10737 -7.60786,13.79279 -20.41394,29.71341 -45.45108,56.50515 -111.45726,85.82347 -207.28079,92.06902 -24.08216,1.56961 -33.23807,1.5399 -51.35609,-0.16663 z m 66.38588,-21.15564 c 62.97294,-6.70179 124.36843,-34.03744 160.60438,-71.50729 18.63977,-19.2745 42.8683,-57.68647 55.78908,-88.44814 1.69412,-4.03333 3.41181,-7.63333 3.81709,-8 0.40529,-0.36667 0.84359,-1.26667 0.974,-2 0.1304,-0.73333 4.42712,-13.93333 9.54824,-29.33333 12.53065,-37.68159 14.14521,-45.81646 14.15783,-71.33334 0.008,-17.45353 -0.45475,-22.28342 -2.98039,-31.06557 -5.62925,-19.574 -16.50075,-37.327394 -31.19264,-50.938309 -8.53349,-7.905628 -25.59817,-19.737277 -34.77015,-24.107592 -2.75,-1.310335 -5,-2.7713 -5,-3.246589 0,-0.475288 -0.75,-0.898826 -1.66666,-0.941194 -0.91667,-0.04237 -7.96667,-2.480351 -15.66667,-5.41774 -16.70801,-6.373757 -40.91736,-12.553236 -64.66666,-16.506275 -16.06343,-2.673735 -23.09678,-2.925581 -96,-3.43752 -81.73855,-0.573983 -96.24428,0.02296 -122.40395,5.037159 -32.78913,6.284917 -56.26359,16.606772 -70.99944,31.218856 -30.34633,30.091461 -45.053632,74.418374 -45.147381,136.071444 -0.03689,24.26019 0.356194,28.95283 4.355847,52 7.680062,44.25475 16.739404,75.46291 27.482544,94.67343 12.3407,22.06723 36.76597,47.95009 56.37952,59.744 11.14253,6.70017 32.36179,14.7958 49.99814,19.07543 5.68257,1.37893 10.33257,2.99256 10.33333,3.58584 7.6e-4,0.59328 0.54199,0.74457 1.20271,0.33622 0.66073,-0.40834 5.98424,0.16486 11.83004,1.27378 24.06952,4.56592 59.03829,5.92549 84.02119,3.26673 z m 15.88521,-107.33066 c -1.31758,-1.81029 -3.11758,-3.31117 -4,-3.33529 -0.88244,-0.0241 -3.98832,-2.42413 -6.90198,-5.33333 -2.91364,-2.90922 -6.05813,-5.28948 -6.98773,-5.28948 -0.92961,0 -3.04572,-2.1121 -4.70246,-4.69352 -1.65674,-2.58144 -4.29651,-5.02999 -5.86615,-5.44122 -1.56964,-0.41122 -4.53189,-2.49913 -6.58279,-4.63981 -2.05089,-2.14067 -4.81664,-3.89212 -6.1461,-3.89212 -1.32947,0 -2.41722,-0.71717 -2.41722,-1.59371 0,-2.04822 -6.70078,-9.07296 -8.65456,-9.07296 -0.81894,0 -3.5244,-2.1 -6.0121,-4.66666 -2.48771,-2.56667 -5.00698,-4.66667 -5.59836,-4.66667 -0.59139,0 -3.24351,-2.4 -5.89359,-5.33333 C 275.19129,270.4 272.52987,268 271.92714,268 c -0.60275,0 -3.06664,-1.8 -5.47533,-4 -2.4087,-2.2 -4.83338,-4 -5.38818,-4 -0.5548,0 -3.5598,-2.76758 -6.67777,-6.1502 -3.11799,-3.38261 -7.03035,-6.66776 -8.69413,-7.30033 C 241.64331,245.01026 241.7857,236 245.85845,236 c 0.86524,0 4.43141,-2.7 7.92485,-6 3.49343,-3.3 6.85916,-6 7.4794,-6 0.62024,0 3.10324,-2.25 5.51777,-5 2.41454,-2.75 4.85763,-5 5.42911,-5 0.57148,0 3.10644,-1.95 5.63323,-4.33333 2.52678,-2.38333 5.09077,-4.33333 5.69773,-4.33333 0.60697,0 3.20865,-2.09332 5.78152,-4.65183 9.52456,-9.47143 16.27595,-15.25248 18.71755,-16.02741 1.38046,-0.43815 3.99754,-2.56455 5.81574,-4.72536 1.8182,-2.1608 3.82686,-3.92874 4.46367,-3.92874 0.63683,0 3.19327,-2.1 5.68097,-4.66666 2.48771,-2.56667 5.229,-4.66667 6.09175,-4.66667 0.86275,0 4.0574,-2.7 7.09924,-6 3.04182,-3.3 6.02525,-6 6.62982,-6 0.60458,0 2.1852,-1.2 3.51252,-2.66667 4.36671,-4.82514 8.47694,-3.41793 17.60138,6.0262 4.61925,4.78108 8.39862,9.46399 8.39862,10.40647 0,0.94249 -2.83142,4.08071 -6.29206,6.97381 -3.46064,2.89311 -7.68791,6.61019 -9.39394,8.26019 -1.70604,1.65 -3.46238,3 -3.903,3 -0.70546,0 -5.36102,3.99112 -17.99264,15.42472 -1.96989,1.78307 -4.13562,3.24195 -4.81273,3.24195 -0.6771,0 -3.26537,2.09361 -5.7517,4.65246 -2.48632,2.55887 -5.00932,4.65887 -5.60667,4.66667 -0.59735,0.008 -2.61915,1.83615 -4.49291,4.06297 -1.87374,2.22684 -5.43366,4.89566 -7.91093,5.93072 -2.47727,1.03507 -5.19651,3.40159 -6.04277,5.25894 -0.84627,1.85733 -2.69788,3.7449 -4.11471,4.19458 -1.41681,0.44968 -4.23076,2.35622 -6.2532,4.23675 -3.5322,3.28435 -3.58316,3.51315 -1.29252,5.80379 1.31155,1.31154 4.12744,3.28588 6.25755,4.3874 2.13009,1.1015 4.87584,3.53342 6.10164,5.40424 1.22581,1.87081 2.99721,3.40148 3.93645,3.40148 0.93924,0 3.74311,2.1 6.23081,4.66666 2.48771,2.56667 5.02375,4.66667 5.63563,4.66667 0.61188,0 2.95633,2.1 5.20989,4.66667 2.25358,2.56666 4.78524,4.6672 5.62594,4.66785 0.8407,6.5e-4 3.85624,2.40065 6.70118,5.33333 2.84495,2.93268 5.66607,5.33215 6.26915,5.33215 0.60308,0 3.13601,2.1 5.62872,4.66667 2.49272,2.56666 4.98086,4.66666 5.52924,4.66666 0.54836,0 2.59378,1.65 4.54537,3.66667 4.59288,4.74603 13.90205,12.29515 15.18821,12.31663 3.27126,0.0547 -0.17481,6.08041 -7.88889,13.79448 -9.68985,9.68986 -13.00943,10.77673 -16.84001,5.51366 z M 1070.265,437.95046 c 20.9678,-2.73116 41.8964,-7.50953 60.9992,-13.92723 25.7914,-8.66477 39.9623,-17.80429 59.4024,-38.31157 9.7986,-10.33645 18.6396,-20.37832 17.9413,-20.37832 -0.1937,0 2.5348,-4.8034 6.0633,-10.67423 11.2316,-18.68775 20.0897,-47.84767 28.3502,-93.32577 4.0378,-22.23071 4.2387,-24.94002 4.2495,-57.33334 0.01,-29.57601 -0.3726,-36.01377 -2.9402,-49.47657 -8.5226,-44.68592 -27.7299,-79.27717 -53.282,-95.957782 -15.5752,-10.167587 -35.4825,-17.055334 -65.7154,-22.736935 -14.3151,-2.690203 -20.4687,-2.920789 -92.6667,-3.472345 -82.802,-0.632566 -97.2126,0.0065 -127.99996,5.677059 -48.19083,8.8759 -83.75983,24.655817 -108.78169,48.260169 -15.61232,14.727864 -24.90849,29.988984 -30.84804,50.641864 -2.52532,8.78098 -2.98873,13.61157 -2.9801,31.06454 0.012,25.60718 1.5866,33.47744 14.53234,72.66667 10.73191,32.48748 20.47667,55.18321 32.66478,76.07679 4.44366,7.6176 8.07938,14.41661 8.07938,15.10892 0,0.6923 0.46611,1.45873 1.03579,1.70318 0.56968,0.24444 5.31513,6.14444 10.54545,13.11111 5.23031,6.96667 11.66422,14.73438 14.29755,17.26156 2.63333,2.52719 4.78788,5.37719 4.78788,6.33334 0,0.95614 0.57732,1.73844 1.28293,1.73844 0.70562,0 4.86883,3.19962 9.25158,7.11028 4.38274,3.91065 12.65542,10.32638 18.38373,14.25718 5.7283,3.9308 10.78217,7.68242 11.23082,8.33694 0.44867,0.65452 1.19856,1.13898 1.66646,1.07661 0.46788,-0.0624 8.28281,3.49999 17.36652,7.91639 28.25032,13.73501 64.40989,24.26852 95.48458,27.81528 16.7997,1.91745 50.7277,1.63526 67.5984,-0.56223 z M 902.66664,357.15823 c 0,-2.43509 4.47439,-16.40317 5.4963,-17.15823 0.49625,-0.36666 1.93165,-3.81666 3.1898,-7.66666 1.25813,-3.85 2.85386,-7 3.54606,-7 0.6922,0 0.91336,-0.55855 0.49146,-1.2412 -0.42192,-0.68267 -0.15732,-1.61808 0.58797,-2.0787 0.74529,-0.46061 1.35508,-2.00208 1.35508,-3.42546 0,-1.42339 0.52203,-2.58798 1.16005,-2.58798 0.63803,0 1.93114,-2.85 2.87356,-6.33333 0.94243,-3.48333 2.2152,-6.98853 2.82839,-7.78935 0.61317,-0.8008 0.72007,-1.8508 0.23755,-2.33333 -0.48254,-0.48252 0.22268,-0.87732 1.56712,-0.87732 1.34444,0 2.04965,-0.3948 1.56712,-0.87732 -0.48252,-0.48253 -0.37563,-1.53253 0.23754,-2.33333 0.61319,-0.80082 1.91356,-4.45602 2.88974,-8.12268 0.97617,-3.66667 2.12501,-6.96667 2.55298,-7.33334 0.95975,-0.82226 4.37346,-8.01565 7.59298,-16 1.33065,-3.3 2.82384,-6.3 3.31818,-6.66666 0.49435,-0.36667 1.58398,-3.36667 2.4214,-6.66667 1.81231,-7.14172 5.70019,-15.96324 7.04488,-15.98471 0.52698,-0.008 0.58955,-0.97585 0.13904,-2.14985 -0.4505,-1.17401 -0.25042,-2.52401 0.44466,-3 1.49989,-1.02715 5.79148,-9.96896 5.79148,-12.06695 0,-0.80584 0.55746,-1.46516 1.2388,-1.46516 0.68134,0 1.92388,-3.3 2.7612,-7.33333 0.83732,-4.03333 2.11526,-7.33333 2.83988,-7.33333 0.72462,0 0.9723,-0.55855 0.5504,-1.2412 -0.42192,-0.68267 -0.15732,-1.61808 0.58797,-2.0787 0.74529,-0.46061 1.35508,-2.00208 1.35508,-3.42546 0,-1.42339 0.47947,-2.58798 1.06548,-2.58798 1.19979,0 4.26785,-7.79497 4.26785,-10.84325 0,-1.09299 1.23062,-3.30816 2.7347,-4.92259 1.50406,-1.61444 2.39856,-3.47921 1.98773,-4.14393 -0.41081,-0.66471 0.0735,-2.02897 1.07619,-3.03169 1.00272,-1.00272 2.56736,-4.2011 3.47698,-7.1075 0.90963,-2.9064 2.74574,-7.4181 4.08024,-10.026 1.33451,-2.60789 2.84216,-6.95789 3.35032,-9.66666 0.50818,-2.70878 1.45718,-4.92504 2.1089,-4.92504 0.65172,0 1.18494,-1.2 1.18494,-2.66667 0,-1.46667 0.66419,-2.66667 1.47599,-2.66667 0.81179,0 1.14968,-0.85034 0.75085,-1.88965 -0.39881,-1.03931 0.1056,-2.20841 1.1208,-2.59801 1.01527,-0.38959 2.53602,-3.28924 3.37952,-6.44368 0.8435,-3.15443 2.0697,-6.39053 2.725,-7.19134 0.6552,-0.8008 0.7966,-1.8508 0.3141,-2.33333 -0.4826,-0.48253 0.1038,-0.87732 1.303,-0.87732 1.2546,0 1.8946,-0.74487 1.5072,-1.75434 -0.3703,-0.96488 0.2448,-3.51488 1.3669,-5.66666 1.1221,-2.15179 2.0439,-4.898142 2.0484,-6.103017 0.012,-3.252421 2.7583,-3.809318 18.784,-3.809318 10.7656,0 14.5535,0.434133 14.5417,1.666666 -0.045,4.737963 -4.6899,17.901529 -9.4032,26.648579 -0.6862,1.27338 -1.2476,3.22338 -1.2476,4.33333 0,1.10995 -0.6,2.01809 -1.3333,2.01809 -0.7334,0 -1.2685,0.45 -1.1892,1 0.2693,1.86747 -1.7835,7 -2.7997,7 -0.5561,0 -1.3425,1.65 -1.7474,3.66667 -0.6028,3.00181 -2.0247,7.05041 -4.3314,12.33333 -0.1601,0.36667 -0.7303,2.01667 -1.2672,3.66667 -0.5369,1.65 -1.4295,3 -1.9836,3 -0.554,0 -1.3843,2.35743 -1.8451,5.23872 -0.4607,2.88131 -1.7757,6.17669 -2.9221,7.32311 -1.1464,1.14641 -1.7406,2.64061 -1.3204,3.32045 0.4202,0.67984 -0.1845,2.18444 -1.3436,3.34356 -1.1591,1.15912 -1.6716,2.10749 -1.1389,2.10749 0.5327,0 -0.026,1.0987 -1.241,2.44154 -1.2153,1.34284 -1.8083,2.84284 -1.3178,3.33333 0.4905,0.49049 0.2586,0.8918 -0.5153,0.8918 -0.774,0 -1.8012,2.1 -2.2827,4.66667 -0.4815,2.56666 -1.3197,4.66666 -1.8627,4.66666 -0.5429,0 -1.0676,1.05 -1.1658,2.33334 -0.2242,2.92816 -4.55622,14.57357 -7.0679,19 -1.04029,1.83333 -1.76396,3.78333 -1.60816,4.33333 0.1558,0.55 -0.31673,1 -1.05006,1 -0.73334,0 -1.33334,1.5 -1.33334,3.33333 0,1.83334 -0.55233,3.33334 -1.22738,3.33334 -0.67507,0 -1.64435,1.95 -2.15396,4.33333 -0.86767,4.05793 -4.33347,11.50423 -6.0507,13 -0.42096,0.36667 -1.54893,3.51667 -2.50661,7 C 977.77031,257.15 976.42931,260 975.748,260 c -0.6813,0 -0.85168,0.62628 -0.3786,1.39174 0.47308,0.76546 0.27778,2.11546 -0.43401,3 -0.71179,0.88454 -1.72001,3.59881 -2.24051,6.03169 -0.5205,2.43288 -1.78633,4.74576 -2.81297,5.13971 -1.02664,0.39396 -1.53465,1.25342 -1.12892,1.9099 0.40573,0.6565 0.10227,1.19363 -0.67432,1.19363 -0.77661,0 -1.41203,1.2 -1.41203,2.66667 0,1.46666 -0.64042,2.66666 -1.42318,2.66666 -0.81642,0 -1.06234,1.13692 -0.57682,2.66667 0.46551,1.46667 0.26139,2.66667 -0.4536,2.66667 -0.71498,0 -2.06884,3 -3.00858,6.66666 -0.93974,3.66667 -2.23059,6.66667 -2.86858,6.66667 -0.63797,0 -0.81476,0.55855 -0.39285,1.2412 0.42192,0.68267 0.15732,1.61808 -0.58797,2.07869 -0.7453,0.46062 -1.35508,2.30208 -1.35508,4.09214 0,1.79005 -0.58858,3.25464 -1.30794,3.25464 -0.71936,0 -1.6844,1.5 -2.14454,3.33333 C 952.08736,318.5 951.11174,320 950.37944,320 c -0.73229,0 -0.9858,0.90071 -0.56336,2.00156 0.42244,1.10087 -0.71337,4.1846 -2.52401,6.85274 -1.81065,2.66814 -3.29209,6.26744 -3.29209,7.99844 0,1.731 -0.63542,3.14726 -1.41203,3.14726 -0.77661,0 -1.0412,0.6 -0.58797,1.33334 0.45322,0.73333 0.18864,1.33333 -0.58798,1.33333 -0.77661,0 -1.41202,1.5 -1.41202,3.33334 0,1.83333 -0.5132,3.33333 -1.14046,3.33333 -0.62725,0 -1.69874,1.95 -2.38112,4.33333 l -1.24066,4.33334 -16.28555,0.37437 c -11.93292,0.27431 -16.28555,-0.0507 -16.28555,-1.21615 z M 1044.3333,323.27778 C 1039.75,318.48892 1036,313.80942 1036,312.87891 c 0,-0.93052 2.8314,-4.05895 6.292,-6.95205 3.4607,-2.89311 7.6879,-6.61019 9.394,-8.26019 1.706,-1.65 3.4624,-3 3.903,-3 0.7054,0 5.361,-3.99112 17.9926,-15.42472 1.9699,-1.78307 4.1356,-3.24195 4.8127,-3.24195 0.6772,0 3.2654,-2.09361 5.7518,-4.65246 2.4863,-2.55887 5.0093,-4.65887 5.6066,-4.66667 0.5974,-0.008 2.6192,-1.83615 4.4929,-4.06297 1.8738,-2.22684 5.4337,-4.89566 7.911,-5.93072 2.4772,-1.03507 5.1965,-3.40159 6.0427,-5.25894 0.8463,-1.85733 2.6979,-3.7449 4.1147,-4.19458 1.4169,-0.44968 4.2308,-2.35622 6.2532,-4.23675 3.5322,-3.28435 3.5832,-3.51315 1.2926,-5.80379 -1.3116,-1.31154 -4.1275,-3.28588 -6.2576,-4.3874 -2.1301,-1.1015 -4.8758,-3.53342 -6.1016,-5.40424 -1.2258,-1.87081 -2.9972,-3.40148 -3.9365,-3.40148 -0.9392,0 -3.7431,-2.1 -6.2308,-4.66666 -2.4877,-2.56667 -5.0237,-4.66667 -5.6356,-4.66667 -0.6119,0 -2.9564,-2.1 -5.2099,-4.66667 -2.2536,-2.56666 -4.7853,-4.6672 -5.6259,-4.66785 -0.8408,-6.5e-4 -3.8563,-2.40065 -6.7012,-5.33333 -2.845,-2.93268 -5.6661,-5.33215 -6.2692,-5.33215 -0.6031,0 -3.136,-2.1 -5.6287,-4.66667 -2.4927,-2.56666 -4.9809,-4.66666 -5.5292,-4.66666 -0.5484,0 -2.5938,-1.65 -4.5454,-3.66667 -4.5929,-4.74603 -13.9021,-12.29515 -15.1882,-12.31663 -0.55,-0.009 -1,-1.1167 -1,-2.46114 0,-3.26163 17.0792,-20.22223 20.3636,-20.22223 1.4223,0 3.7658,1.5 5.2079,3.33333 1.4421,1.83334 3.3285,3.35307 4.1919,3.37719 0.8635,0.0241 3.9538,2.42413 6.8675,5.33333 2.9136,2.90922 6.0581,5.28948 6.9877,5.28948 0.9296,0 3.0457,2.1121 4.7025,4.69352 1.6567,2.58144 4.2965,5.02999 5.8661,5.44122 1.5696,0.41122 4.5319,2.49913 6.5828,4.63981 2.0509,2.14067 4.8166,3.89212 6.1461,3.89212 1.3295,0 2.4172,0.78775 2.4172,1.75055 0,2.01418 6.8209,8.91612 8.8114,8.91612 0.7327,0 3.3676,2.1 5.8553,4.66666 2.4877,2.56667 5.0069,4.66667 5.5983,4.66667 0.5914,0 3.2435,2.4 5.8936,5.33333 2.6501,2.93334 5.3115,5.33334 5.9143,5.33334 0.6027,0 3.0666,1.8 5.4753,4 2.4087,2.2 4.8334,4 5.3882,4 0.5548,0 3.5598,2.76758 6.6777,6.1502 3.118,3.38261 7.0304,6.66776 8.6942,7.30033 4.0484,1.53921 3.906,10.54947 -0.1667,10.54947 -0.8653,0 -4.4315,2.7 -7.9249,6 -3.4934,3.3 -6.8592,6 -7.4794,6 -0.6202,0 -3.1032,2.25 -5.5178,5 -2.4145,2.75 -4.8576,5 -5.4291,5 -0.5715,0 -3.1064,1.95 -5.6332,4.33333 -2.5268,2.38333 -5.0908,4.33333 -5.6977,4.33333 -0.607,0 -3.2087,2.09332 -5.7816,4.65183 -9.5245,9.47143 -16.2759,15.25248 -18.7175,16.02741 -1.3805,0.43815 -3.9976,2.56455 -5.8158,4.72536 -1.8182,2.1608 -3.8268,3.92874 -4.4636,3.92874 -0.6368,0 -3.1933,2.1 -5.681,4.66666 -2.4877,2.56667 -5.229,4.66667 -6.0917,4.66667 -0.8628,0 -4.0574,2.7 -7.0993,6 -3.0418,3.3 -6.0252,6 -6.6298,6 -0.6046,0 -2.1852,1.2 -3.5125,2.66667 -4.3983,4.86 -8.597,3.4208 -17.6667,-6.05556 z"
         id="path1505" />
    </g>
  </g>
</svg>
