<?xml version="1.0" encoding="UTF-8" standalone="no"?>
<!-- Created with Inkscape (http://www.inkscape.org/) -->

<svg
   version="1.1"
   id="svg856"
   width="120.00052"
   height="41.147999"
   viewBox="0 0 120.00052 41.147999"
   sodipodi:docname="logo-philipibovo.svg"
   inkscape:version="1.1.1 (c3084ef, 2021-09-22)"
   xmlns:inkscape="http://www.inkscape.org/namespaces/inkscape"
   xmlns:sodipodi="http://sodipodi.sourceforge.net/DTD/sodipodi-0.dtd"
   xmlns="http://www.w3.org/2000/svg"
   xmlns:svg="http://www.w3.org/2000/svg">
  <defs
     id="defs860" />
  <sodipodi:namedview
     id="namedview858"
     pagecolor="#ffffff"
     bordercolor="#999999"
     borderopacity="1"
     inkscape:pageshadow="0"
     inkscape:pageopacity="0"
     inkscape:pagecheckerboard="true"
     showgrid="false"
     fit-margin-top="0"
     fit-margin-left="0"
     fit-margin-right="0"
     fit-margin-bottom="0"
     inkscape:zoom="2.3204131"
     inkscape:cx="151.05069"
     inkscape:cy="-21.332408"
     inkscape:window-width="2560"
     inkscape:window-height="1027"
     inkscape:window-x="1440"
     inkscape:window-y="25"
     inkscape:window-maximized="1"
     inkscape:current-layer="g862" />
  <g
     inkscape:groupmode="layer"
     inkscape:label="Image"
     id="g862"
     transform="translate(-1.3332782,85.171406)">
    <g
       id="g946"
       transform="matrix(0.090025,0,0,0.090025,1.3143256,-85.546084)">
      <path
         style="fill:#cecece;stroke-width:1.33333"
         d="m 294.99999,439.01995 c 3.48334,-0.27466 9.18334,-0.27466 12.66667,0 3.48333,0.27467 0.63333,0.49939 -6.33333,0.49939 -6.96667,0 -9.81667,-0.22472 -6.33334,-0.49939 z m 733.33331,0 c 3.4833,-0.27466 9.1833,-0.27466 12.6667,0 3.4833,0.27467 0.6333,0.49939 -6.3334,0.49939 -6.9666,0 -9.8166,-0.22472 -6.3333,-0.49939 z M 1180,395.49659 c 0,-0.27686 1.05,-1.32686 2.3333,-2.33333 2.1148,-1.65849 2.1619,-1.61133 0.5034,0.50341 -1.7418,2.221 -2.8367,2.92731 -2.8367,1.82992 z m -1030.12668,-3.82992 -2.53999,-3 3,2.53999 c 2.81925,2.38696 3.60699,3.46001 2.53999,3.46001 -0.25302,0 -1.60302,-1.35 -3,-3 z m -6.66667,-6.66666 -2.53999,-3 3,2.53998 c 2.81926,2.38696 3.60699,3.46002 2.53999,3.46002 -0.25301,0 -1.60301,-1.35 -3,-3 z m 697.95658,-23.33334 c -1.65849,-2.11474 -1.61133,-2.1619 0.50342,-0.50341 1.28333,1.00647 2.33333,2.05647 2.33333,2.33333 0,1.09739 -1.09492,0.39108 -2.83675,-1.82992 z M 1246.9266,222 c 0.027,-2.2 0.326,-2.93858 0.664,-1.64129 0.3381,1.29729 0.3158,3.09729 -0.049,4 -0.3653,0.90271 -0.6419,-0.15871 -0.6147,-2.35871 z m -0.05,-32.66666 c 0,-1.83334 0.3026,-2.58334 0.6725,-1.66667 0.3699,0.91667 0.3699,2.41667 0,3.33333 -0.3699,0.91667 -0.6725,0.16667 -0.6725,-1.66666 z M 86.771927,181.8889 c 0.06397,-1.55327 0.379921,-1.8692 0.805556,-0.80556 0.385161,0.96249 0.337792,2.11249 -0.105267,2.55556 -0.443056,0.44305 -0.758188,-0.34446 -0.700293,-1.75 z M 576.39953,168 c 0,-4.03333 0.24996,-5.68333 0.55546,-3.66666 0.3055,2.01666 0.3055,5.31666 0,7.33333 -0.3055,2.01667 -0.55546,0.36667 -0.55546,-3.66667 z m 185.33333,0 c 0,-4.03333 0.24996,-5.68333 0.55545,-3.66666 0.30551,2.01666 0.30551,5.31666 0,7.33333 -0.30549,2.01667 -0.55545,0.36667 -0.55545,-3.66667 z m -53.90296,-2.33333 c -1.65849,-2.11475 -1.61133,-2.16191 0.50342,-0.50341 2.221,1.74182 2.9273,2.83674 1.82992,2.83674 -0.27687,0 -1.32687,-1.05 -2.33334,-2.33333 z m 85.50341,-77.000002 c 2.48771,-2.566667 4.82311,-4.666667 5.18978,-4.666667 0.36666,0 -1.36874,2.1 -3.85644,4.666667 -2.48771,2.566667 -4.82311,4.666667 -5.18978,4.666667 -0.36666,0 1.36874,-2.1 3.85644,-4.666667 z M 0.36315214,56.000001 c 0,-3.3 0.26002132,-4.65 0.57782518,-3 0.31780388,1.65 0.31780388,4.35 0,6 -0.31780386,1.65 -0.57782518,0.3 -0.57782518,-3 z m 1331.99994786,0 c 0,-3.3 0.26,-4.65 0.5778,-3 0.3179,1.65 0.3179,4.35 0,6 -0.3178,1.65 -0.5778,0.3 -0.5778,-3 z M 681.08332,53.755849 c 0.96249,-0.385162 2.1125,-0.337792 2.55556,0.105266 0.44305,0.443056 -0.34446,0.758188 -1.75,0.700294 -1.55327,-0.06397 -1.8692,-0.379922 -0.80556,-0.805556 z M 248.3587,32.409346 c 1.29729,-0.338058 3.09729,-0.315826 4,0.0494 0.90271,0.36523 -0.15871,0.641824 -2.35871,0.61465 -2.2,-0.02717 -2.93858,-0.325997 -1.64129,-0.664056 z m 126.64129,0.0049 c 1.28333,-0.335369 3.38333,-0.335369 4.66667,0 1.28333,0.335371 0.23333,0.609764 -2.33334,0.609764 -2.56666,0 -3.61666,-0.274393 -2.33333,-0.609764 z m 582.66665,0 c 1.28334,-0.335369 3.38334,-0.335369 4.66667,0 1.28333,0.335371 0.23333,0.609764 -2.33333,0.609764 -2.56667,0 -3.61667,-0.274393 -2.33334,-0.609764 z m 125.35866,-0.0049 c 1.2973,-0.338058 3.0973,-0.315826 4,0.0494 0.9028,0.36523 -0.1587,0.641824 -2.3587,0.61465 -2.2,-0.02717 -2.9385,-0.325997 -1.6413,-0.664056 z M 17.083333,27.089182 c 0.9625,-0.385162 2.1125,-0.337792 2.555556,0.105266 0.443054,0.443056 -0.344445,0.758188 -1.75,0.700294 -1.553257,-0.06397 -1.8692,-0.379922 -0.805556,-0.805556 z M 1311,27.080915 c 1.2833,-0.335369 3.3833,-0.335369 4.6666,0 1.2834,0.335371 0.2334,0.609764 -2.3333,0.609764 -2.5667,0 -3.6167,-0.274393 -2.3333,-0.609764 z M 1202.4166,16.422531 c 0.9625,-0.385161 2.1125,-0.337792 2.5556,0.105267 0.443,0.443056 -0.3445,0.758188 -1.75,0.700293 -1.5533,-0.06397 -1.8692,-0.379921 -0.8056,-0.805556 z M 235.74999,5.7558641 c 0.9625,-0.3851608 2.1125,-0.3377924 2.55556,0.1052627 0.44306,0.4430556 -0.34445,0.7581872 -1.75,0.7002924 -1.55326,-0.063979 -1.8692,-0.3799204 -0.80556,-0.8055551 z m 862.66661,0 c 0.9625,-0.3851608 2.1125,-0.3377924 2.5556,0.1052627 0.4431,0.4430556 -0.3445,0.7581872 -1.75,0.7002924 -1.5533,-0.063979 -1.8692,-0.3799204 -0.8056,-0.8055551 z M 259.74999,4.4225307 c 0.9625,-0.3851608 2.1125,-0.3377924 2.55556,0.1052627 0.44306,0.4430556 -0.34445,0.7581872 -1.75,0.7002924 -1.55326,-0.063979 -1.8692,-0.3799204 -0.80556,-0.8055551 z m 88,0 c 0.96249,-0.3851608 2.11251,-0.3377924 2.55556,0.1052627 0.44305,0.4430556 -0.34445,0.7581872 -1.75,0.7002924 -1.55327,-0.063979 -1.8692,-0.3799204 -0.80556,-0.8055551 z m 638.66665,0 c 0.9625,-0.3851608 2.11251,-0.3377924 2.55556,0.1052627 0.44306,0.4430556 -0.34445,0.7581872 -1.75,0.7002924 -1.55326,-0.063979 -1.8692,-0.3799204 -0.80556,-0.8055551 z M 1073,4.4503081 c 0.9166,-0.3698831 2.4166,-0.3698831 3.3333,0 0.9167,0.369883 0.1667,0.6725146 -1.6667,0.6725146 -1.8333,0 -2.5833,-0.3026316 -1.6666,-0.6725146 z"
         id="path958" />
      <path
         style="fill:#afafaf;stroke-width:1.33333"
         d="m 315.74999,460.42253 c 0.9625,-0.38516 2.1125,-0.3378 2.55556,0.1052 0.44306,0.44305 -0.34445,0.75818 -1.75,0.70029 -1.55326,-0.064 -1.8692,-0.37992 -0.80556,-0.80555 z m 702.58331,0.0277 c 0.9167,-0.36988 2.4167,-0.36988 3.3333,0 0.9167,0.36988 0.1667,0.67252 -1.6666,0.67252 -1.8334,0 -2.5834,-0.30264 -1.6667,-0.67252 z m -733.33331,-21.3333 c 0.91667,-0.36988 2.41667,-0.36988 3.33334,0 0.91666,0.36988 0.16666,0.67252 -1.66667,0.67252 -1.83333,0 -2.58333,-0.30264 -1.66667,-0.67252 z m 30.02538,-0.0409 c 1.29729,-0.33805 3.09729,-0.31582 4,0.0495 0.9027,0.36524 -0.15871,0.64183 -2.35871,0.61465 -2.2,-0.0272 -2.93859,-0.326 -1.64129,-0.66405 z m 703.30793,0.0409 c 0.9167,-0.36988 2.4167,-0.36988 3.3333,0 0.9167,0.36988 0.1667,0.67252 -1.6666,0.67252 -1.8334,0 -2.5834,-0.30264 -1.6667,-0.67252 z m 29.4167,-0.0277 c 0.9625,-0.38516 2.1125,-0.3378 2.5555,0.1052 0.4431,0.44306 -0.3444,0.75819 -1.75,0.7003 -1.5532,-0.064 -1.8692,-0.37992 -0.8055,-0.80555 z M 505.2776,389.00001 c 5.52528,-5.88692 6.72239,-6.94546 6.72239,-5.94428 0,0.21398 -2.85,3.06398 -6.33334,6.33333 l -6.33333,5.94428 z m -18.61095,-17.50342 c 0,-0.27686 1.05,-1.32686 2.33334,-2.33333 2.11474,-1.65849 2.1619,-1.61133 0.50341,0.50341 -1.74183,2.221 -2.83675,2.92731 -2.83675,1.82992 z M 1246.7719,227.22223 c 0.064,-1.55327 0.3799,-1.8692 0.8055,-0.80556 0.3852,0.96249 0.3378,2.11249 -0.1052,2.55556 -0.443,0.44305 -0.7581,-0.34445 -0.7002,-1.75 z m 0,-42.66667 c 0.064,-1.55326 0.3799,-1.8692 0.8055,-0.80556 0.3852,0.9625 0.3378,2.1125 -0.1052,2.55556 -0.443,0.44306 -0.7581,-0.34445 -0.7002,-1.75 z m -670.66665,-8 c 0.064,-1.55326 0.37992,-1.8692 0.80555,-0.80556 0.38516,0.9625 0.3378,2.1125 -0.1052,2.55556 -0.44305,0.44306 -0.75819,-0.34445 -0.70029,-1.75 z m 0,-17.33333 c 0.064,-1.55327 0.37992,-1.8692 0.80555,-0.80556 0.38516,0.96249 0.3378,2.11249 -0.1052,2.55556 -0.44305,0.44305 -0.75819,-0.34445 -0.70029,-1.75 z m 185.33333,0 c 0.064,-1.55327 0.37992,-1.8692 0.80555,-0.80556 0.38516,0.96249 0.3378,2.11249 -0.1052,2.55556 -0.44306,0.44305 -0.75819,-0.34445 -0.7003,-1.75 z m -216.85581,-70.222229 -3.91612,-4.333333 4.33334,3.916121 c 4.03928,3.650375 4.9462,4.750546 3.91612,4.750546 -0.22947,0 -2.17947,-1.95 -4.33334,-4.333334 z M 0.36315214,66.666668 c 0,-3.3 0.26002132,-4.65 0.57782518,-3 0.31780388,1.65 0.31780388,4.35 0,6 -0.31780386,1.65 -0.57782518,0.3 -0.57782518,-3 z m 130.30350786,2 c 1.72233,-1.833334 3.43151,-3.333334 3.79818,-3.333334 0.36666,0 -0.74251,1.5 -2.46484,3.333334 -1.72233,1.833333 -3.43151,3.333333 -3.79817,3.333333 -0.36667,0 0.74251,-1.5 2.46483,-3.333333 z M 1332.3362,66.000001 c 0.015,-2.933333 0.2879,-3.976337 0.6068,-2.317788 0.3189,1.658551 0.3068,4.058551 -0.027,5.333333 -0.3336,1.274784 -0.5946,-0.08221 -0.5798,-3.015545 z M 653.08332,53.755849 c 0.96249,-0.385162 2.1125,-0.337792 2.55556,0.105266 0.44305,0.443056 -0.34446,0.758188 -1.75,0.700294 -1.55327,-0.06397 -1.8692,-0.379922 -0.80556,-0.805556 z M 0.25993162,47.333334 c 0.0271729,-2.2 0.32599811,-2.938581 0.66405598,-1.641291 0.3380579,1.29729 0.3158255,3.09729 -0.0494053,4 -0.36523076,0.90271 -0.64182357,-0.158709 -0.61465068,-2.358709 z m 1331.99996838,0 c 0.027,-2.2 0.326,-2.938581 0.6641,-1.641291 0.338,1.29729 0.3158,3.09729 -0.05,4 -0.3652,0.90271 -0.6418,-0.158709 -0.6146,-2.358709 z M 243.74999,32.422515 c 0.9625,-0.385161 2.1125,-0.337792 2.55556,0.105267 0.44306,0.443056 -0.34445,0.758188 -1.75,0.700293 -1.55326,-0.06397 -1.8692,-0.379921 -0.80556,-0.805556 z m 138.66667,0 c 0.96249,-0.385161 2.1125,-0.337792 2.55556,0.105267 0.44305,0.443056 -0.34446,0.758188 -1.75,0.700293 -1.55327,-0.06397 -1.8692,-0.379921 -0.80556,-0.805556 z m 569.24998,0.02777 c 0.91667,-0.369882 2.41667,-0.369882 3.33334,0 0.91666,0.369884 0.16666,0.672515 -1.66667,0.672515 -1.83333,0 -2.58333,-0.302631 -1.66667,-0.672515 z m 137.41666,-0.02777 c 0.9625,-0.385161 2.1125,-0.337792 2.5556,0.105267 0.443,0.443056 -0.3445,0.758188 -1.75,0.700293 -1.5533,-0.06397 -1.8692,-0.379921 -0.8056,-0.805556 z M 385.08332,7.0891814 c 0.9625,-0.3851608 2.11251,-0.3377924 2.55556,0.1052627 0.44306,0.4430556 -0.34445,0.7581872 -1.75,0.7002924 -1.55326,-0.063979 -1.8692,-0.3799204 -0.80556,-0.8055551 z M 367.74999,5.7558481 c 0.96249,-0.3851608 2.11251,-0.3377924 2.55556,0.1052627 0.44305,0.4430556 -0.34445,0.7581872 -1.75,0.7002924 -1.55327,-0.063979 -1.8692,-0.3799204 -0.80556,-0.8055551 z m 598.58332,0.027778 c 0.91667,-0.3698831 2.41667,-0.3698831 3.33333,0 0.91667,0.3698831 0.16667,0.6725147 -1.66666,0.6725147 -1.83334,0 -2.58334,-0.3026316 -1.66667,-0.6725147 z m 128.08329,-0.027777 c 0.9625,-0.3851608 2.1125,-0.3377924 2.5556,0.1052627 0.4431,0.4430556 -0.3445,0.7581872 -1.75,0.7002924 -1.5533,-0.063979 -1.8692,-0.3799204 -0.8056,-0.8055551 z M 264.3587,4.4093458 c 1.29729,-0.3380579 3.09729,-0.3158255 4,0.049405 0.90271,0.3652308 -0.15871,0.6418236 -2.35871,0.6146507 -2.2,-0.027173 -2.93858,-0.3259981 -1.64129,-0.6640557 z m 77.97462,0.040947 c 0.91667,-0.3698831 2.41667,-0.3698831 3.33334,0 0.91666,0.369883 0.16666,0.6725146 -1.66667,0.6725146 -1.83333,0 -2.58333,-0.3026316 -1.66667,-0.6725146 z m 648.69203,-0.040947 c 1.29729,-0.3380579 3.09729,-0.3158255 4,0.049405 0.90271,0.3652308 -0.15871,0.6418236 -2.35871,0.6146507 -2.2,-0.027173 -2.93858,-0.3259981 -1.64129,-0.6640557 z m 76.64125,0.040947 c 0.9167,-0.3698831 2.4167,-0.3698831 3.3334,0 0.9166,0.369883 0.1666,0.6725146 -1.6667,0.6725146 -1.8333,0 -2.5833,-0.3026316 -1.6667,-0.6725146 z"
         id="path956" />
      <path
         style="fill:#8f8f8f;stroke-width:1.33333"
         d="m 270.41666,460.42253 c 0.96249,-0.38516 2.11249,-0.3378 2.55556,0.1052 0.44305,0.44305 -0.34445,0.75818 -1.75,0.70029 -1.55327,-0.064 -1.8692,-0.37992 -0.80556,-0.80555 z m 39.91667,0.0277 c 0.91666,-0.36988 2.41666,-0.36988 3.33333,0 0.91667,0.36988 0.16667,0.67252 -1.66667,0.67252 -1.83333,0 -2.58333,-0.30264 -1.66666,-0.67252 z m 713.41667,-0.0277 c 0.9625,-0.38516 2.1125,-0.3378 2.5555,0.1052 0.4431,0.44305 -0.3444,0.75818 -1.75,0.70029 -1.5532,-0.064 -1.8692,-0.37992 -0.8055,-0.80555 z m 40,0 c 0.9625,-0.38516 2.1125,-0.3378 2.5555,0.1052 0.4431,0.44305 -0.3444,0.75818 -1.75,0.70029 -1.5532,-0.064 -1.8692,-0.37992 -0.8055,-0.80555 z m -733.33334,-1.33334 c 0.96249,-0.38516 2.11249,-0.3378 2.55556,0.1052 0.44305,0.44306 -0.34445,0.75819 -1.75,0.7003 -1.55327,-0.064 -1.8692,-0.37992 -0.80556,-0.80555 z m 683.99994,-20 c 0.9625,-0.38516 2.1125,-0.3378 2.5556,0.1052 0.4431,0.44306 -0.3445,0.75819 -1.75,0.7003 -1.5533,-0.064 -1.8692,-0.37992 -0.8056,-0.80555 z m 37.25,0.0277 c 0.9167,-0.36988 2.4167,-0.36988 3.3334,0 0.9166,0.36988 0.1666,0.67252 -1.6667,0.67252 -1.8333,0 -2.5833,-0.30264 -1.6667,-0.67252 z m -568.99995,-63.6203 c 0,-0.27686 1.05,-1.32686 2.33334,-2.33333 2.11474,-1.65849 2.1619,-1.61133 0.50341,0.50341 -1.74183,2.221 -2.83675,2.92731 -2.83675,1.82992 z m 10,-10.16325 c 1.32732,-1.46667 2.71331,-2.66667 3.07998,-2.66667 0.36666,0 -0.41932,1.2 -1.74664,2.66667 -1.32732,1.46667 -2.71331,2.66667 -3.07998,2.66667 -0.36666,0 0.41932,-1.2 1.74664,-2.66667 z M 85.770851,204.66667 c 0.0059,-5.13333 0.246911,-7.06995 0.535544,-4.3036 0.288635,2.76636 0.283795,6.96636 -0.0108,9.33333 -0.294549,2.36699 -0.530704,0.1036 -0.524789,-5.02973 z M 761.43858,179.22223 c 0.064,-1.55327 0.37992,-1.8692 0.80555,-0.80556 0.38516,0.96249 0.3378,2.11249 -0.1052,2.55556 -0.44306,0.44305 -0.75819,-0.34445 -0.7003,-1.75 z M 631.99998,163.33334 C 633.72232,161.5 635.43149,160 635.79816,160 c 0.36666,0 -0.74251,1.5 -2.46484,3.33334 -1.72234,1.83333 -3.43151,3.33333 -3.79818,3.33333 -0.36666,0 0.74251,-1.5 2.46484,-3.33333 z M 0.30933693,76.000001 c 0,-2.566667 0.27439368,-3.616667 0.60976373,-2.333333 0.33537004,1.283333 0.33537004,3.383333 0,4.666666 -0.33537005,1.283334 -0.60976373,0.233334 -0.60976373,-2.333333 z M 1332.3362,75.333334 c 0.015,-2.933333 0.2879,-3.976337 0.6068,-2.317788 0.3189,1.658551 0.3068,4.058551 -0.027,5.333334 -0.3337,1.274784 -0.5946,-0.08221 -0.5798,-3.015546 z m -127.173,-4.333333 c -1.6585,-2.114741 -1.6113,-2.161901 0.5034,-0.503407 1.2834,1.006459 2.3334,2.056459 2.3334,2.333334 0,1.097378 -1.095,0.39107 -2.8368,-1.829927 z M 386.41666,32.422515 c 0.96249,-0.385161 2.1125,-0.337792 2.55556,0.105267 0.44305,0.443056 -0.34446,0.758188 -1.75,0.700293 -1.55327,-0.06397 -1.8692,-0.379921 -0.80556,-0.805556 z m 706.66664,0 c 0.9625,-0.385161 2.1125,-0.337792 2.5556,0.105267 0.443,0.443056 -0.3445,0.758188 -1.75,0.700293 -1.5533,-0.06397 -1.8692,-0.379921 -0.8056,-0.805556 z M 242.41666,5.7558481 c 0.96249,-0.3851608 2.11249,-0.3377924 2.55556,0.1052627 0.44305,0.4430556 -0.34445,0.7581872 -1.75,0.7002924 -1.55327,-0.063979 -1.8692,-0.3799204 -0.80556,-0.8055551 z m 121.33333,0 c 0.96249,-0.3851608 2.11251,-0.3377924 2.55556,0.1052627 0.44305,0.4430556 -0.34445,0.7581872 -1.75,0.7002924 -1.55327,-0.063979 -1.8692,-0.3799204 -0.80556,-0.8055551 z m 607.99999,0 c 0.96249,-0.3851608 2.1125,-0.3377924 2.55556,0.1052627 0.44305,0.4430556 -0.34446,0.7581872 -1.75,0.7002924 -1.55327,-0.063979 -1.8692,-0.3799204 -0.80556,-0.8055551 z M 271.02537,4.4093458 c 1.29729,-0.3380579 3.09729,-0.3158255 4,0.049405 0.9027,0.3652308 -0.15871,0.6418236 -2.35871,0.6146507 -2.2,-0.027173 -2.93859,-0.3259981 -1.64129,-0.6640557 z m 65.33333,0 c 1.29729,-0.3380579 3.09729,-0.3158255 4,0.049405 0.9027,0.3652308 -0.15871,0.6418236 -2.35871,0.6146507 -2.2,-0.027173 -2.93859,-0.3259981 -1.64129,-0.6640557 z m 661.33332,0 c 1.29729,-0.3380579 3.09728,-0.3158255 3.99998,0.049405 0.9027,0.3652308 -0.1587,0.6418236 -2.35869,0.6146507 -2.2,-0.027173 -2.93859,-0.3259981 -1.64129,-0.6640557 z m 63.99998,0 c 1.2973,-0.3380579 3.0973,-0.3158255 4,0.049405 0.9027,0.3652308 -0.1587,0.6418236 -2.3587,0.6146507 -2.2,-0.027173 -2.9386,-0.3259981 -1.6413,-0.6640557 z"
         id="path954" />
      <path
         style="fill:#6f6f6f;stroke-width:1.33333"
         d="m 306.41666,460.42253 c 0.96249,-0.38516 2.11249,-0.3378 2.55556,0.1052 0.44305,0.44305 -0.34445,0.75818 -1.75,0.70029 -1.55327,-0.064 -1.8692,-0.37992 -0.80556,-0.80555 z m 721.33334,0 c 0.9625,-0.38516 2.1125,-0.3378 2.5555,0.1052 0.4431,0.44305 -0.3444,0.75818 -1.75,0.70029 -1.5532,-0.064 -1.8692,-0.37992 -0.8055,-0.80555 z M 278.41666,439.08919 c 0.96249,-0.38516 2.11249,-0.3378 2.55556,0.1052 0.44305,0.44306 -0.34445,0.75819 -1.75,0.7003 -1.55327,-0.064 -1.8692,-0.37992 -0.80556,-0.80555 z M 85.642669,217.33334 c 0,-2.56667 0.274393,-3.61667 0.609764,-2.33334 0.335369,1.28334 0.335369,3.38334 0,4.66667 -0.335371,1.28333 -0.609764,0.23333 -0.609764,-2.33333 z m -0.09881,-24 c 0,-1.83334 0.302631,-2.58334 0.672515,-1.66667 0.369883,0.91667 0.369883,2.41667 0,3.33333 -0.369884,0.91667 -0.672515,0.16667 -0.672515,-1.66666 z M 0.25993162,83.333335 c 0.0271729,-2.2 0.32599811,-2.938582 0.66405598,-1.641291 0.3380579,1.297289 0.3158255,3.097289 -0.0494053,4 -0.36523079,0.902709 -0.6418236,-0.158709 -0.61465068,-2.358709 z m 1331.99996838,0 c 0.027,-2.2 0.326,-2.938582 0.6641,-1.641291 0.338,1.297289 0.3158,3.097289 -0.05,4 -0.3652,0.902709 -0.6418,-0.158709 -0.6146,-2.358709 z M 668.35869,55.076013 c 1.29729,-0.338058 3.09729,-0.315826 4,0.0494 0.90271,0.36523 -0.15871,0.641824 -2.35871,0.61465 -2.2,-0.02717 -2.93858,-0.325997 -1.64129,-0.664056 z M 225.08333,7.0891814 c 0.96249,-0.3851608 2.11249,-0.3377924 2.55556,0.1052627 0.44305,0.4430556 -0.34446,0.7581872 -1.75,0.7002924 -1.55327,-0.063979 -1.8692,-0.3799204 -0.80556,-0.8055551 z m 21.25,-1.3055556 c 0.91666,-0.3698831 2.41666,-0.3698831 3.33333,0 0.91667,0.3698831 0.16667,0.6725147 -1.66667,0.6725147 -1.83333,0 -2.58333,-0.3026316 -1.66666,-0.6725147 z m 113.41666,-0.027777 c 0.96249,-0.3851608 2.11251,-0.3377924 2.55556,0.1052627 0.44305,0.4430556 -0.34445,0.7581872 -1.75,0.7002924 -1.55327,-0.063979 -1.8692,-0.3799204 -0.80556,-0.8055551 z m 726.58331,0.027777 c 0.9167,-0.3698831 2.4167,-0.3698831 3.3333,0 0.9167,0.3698831 0.1667,0.6725147 -1.6666,0.6725147 -1.8334,0 -2.5834,-0.3026316 -1.6667,-0.6725147 z m -808.64127,-1.37428 c 1.2973,-0.3380579 3.0973,-0.3158255 4,0.049405 0.90271,0.3652308 -0.1587,0.6418236 -2.3587,0.6146507 -2.2,-0.027173 -2.93859,-0.3259981 -1.6413,-0.6640557 z m 50.6413,0.00489 c 1.28333,-0.3353701 3.38333,-0.3353701 4.66666,0 1.28333,0.33537 0.23334,0.6097638 -2.33333,0.6097638 -2.56667,0 -3.61667,-0.2743938 -2.33333,-0.6097638 z m 675.33327,0.03606 c 0.9167,-0.369883 2.4167,-0.369883 3.3334,0 0.9166,0.3698831 0.1666,0.6725147 -1.6667,0.6725147 -1.8333,0 -2.5833,-0.3026316 -1.6667,-0.6725147 z m 50,-0.03606 c 1.2834,-0.3353701 3.3834,-0.3353701 4.6667,0 1.2833,0.33537 0.2333,0.6097638 -2.3333,0.6097638 -2.5667,0 -3.6167,-0.2743938 -2.3334,-0.6097638 z"
         id="path952" />
      <path
         style="fill:#5b5c5c;stroke-width:1.33333"
         d="m 276.99999,460.4503 c 0.91667,-0.36988 2.41667,-0.36988 3.33334,0 0.91666,0.36988 0.16666,0.67252 -1.66667,0.67252 -1.83333,0 -2.58333,-0.30264 -1.66667,-0.67252 z m 25.41667,-0.0277 c 0.96249,-0.38516 2.11249,-0.3378 2.55556,0.1052 0.44305,0.44305 -0.34445,0.75818 -1.75,0.70029 -1.55327,-0.064 -1.8692,-0.37992 -0.80556,-0.80555 z m 754.66664,0 c 0.9625,-0.38516 2.1125,-0.3378 2.5556,0.1052 0.443,0.44305 -0.3445,0.75818 -1.75,0.70029 -1.5533,-0.064 -1.8692,-0.37992 -0.8056,-0.80555 z m 157.5833,-62.42256 c 1.7224,-1.83334 3.4315,-3.33334 3.7982,-3.33334 0.3667,0 -0.7425,1.5 -2.4648,3.33334 -1.7224,1.83333 -3.4315,3.33333 -3.7982,3.33333 -0.3667,0 0.7425,-1.5 2.4648,-3.33333 z m -382.73839,-9.66667 -4.5949,-5 5,4.59489 c 4.6539,4.27682 5.61306,5.40511 4.5949,5.40511 -0.22282,0 -2.47282,-2.25 -5,-5 z m 354.73839,1.66667 c 1.7224,-1.83334 3.4315,-3.33334 3.7982,-3.33334 0.3667,0 -0.7425,1.5 -2.4648,3.33334 -1.7224,1.83333 -3.4315,3.33333 -3.7982,3.33333 -0.3667,0 0.7425,-1.5 2.4648,-3.33333 z m -340.7933,-22.33334 -2.53999,-3 3,2.53999 c 1.65,1.39699 3,2.74699 3,3 0,1.067 -1.07305,0.27927 -3.46001,-2.53999 z M 85.438594,223.22223 c 0.06397,-1.55327 0.379921,-1.8692 0.805556,-0.80556 0.385161,0.96249 0.337792,2.11249 -0.105267,2.55556 -0.443056,0.44305 -0.758188,-0.34445 -0.700293,-1.75 z M 1248.3362,204.66667 c 0.015,-2.93333 0.2879,-3.97633 0.6068,-2.31779 0.3189,1.65855 0.3068,4.05855 -0.027,5.33334 -0.3337,1.27478 -0.5946,-0.0823 -0.5798,-3.01555 z m 52.9971,-65.17008 c 0,-0.27687 1.05,-1.32687 2.3333,-2.33333 2.1148,-1.6585 2.1619,-1.61134 0.5034,0.50341 -1.7418,2.221 -2.8367,2.92731 -2.8367,1.82992 z M 0.21052631,89.333335 c 0,-1.833334 0.30263157,-2.583334 0.6725146,-1.666667 0.36988299,0.916667 0.36988299,2.416667 0,3.333333 -0.36988303,0.916667 -0.6725146,0.166667 -0.6725146,-1.666666 z m 1331.99997369,0 c 0,-1.833334 0.3026,-2.583334 0.6725,-1.666667 0.3699,0.916667 0.3699,2.416667 0,3.333333 -0.3699,0.916667 -0.6725,0.166667 -0.6725,-1.666666 z M 283.66666,4.4502925 c 0.91667,-0.3698831 2.41667,-0.3698831 3.33333,0 0.91667,0.369883 0.16667,0.6725146 -1.66666,0.6725146 -1.83334,0 -2.58334,-0.3026316 -1.66667,-0.6725146 z m 38.66667,0 c 0.91666,-0.3698831 2.41666,-0.3698831 3.33333,0 0.91667,0.369883 0.16667,0.6725146 -1.66667,0.6725146 -1.83333,0 -2.58333,-0.3026316 -1.66666,-0.6725146 z m 687.33327,-0.03606 c 1.2834,-0.3353702 3.3834,-0.3353702 4.6667,0 1.2833,0.33537 0.2333,0.6097637 -2.3333,0.6097637 -2.5667,0 -3.6167,-0.2743937 -2.3334,-0.6097637 z m 39.4167,0.00828 c 0.9625,-0.3851608 2.1125,-0.3377924 2.5556,0.1052626 0.443,0.4430556 -0.3445,0.7581872 -1.75,0.7002924 -1.5533,-0.063979 -1.8692,-0.3799204 -0.8056,-0.805555 z"
         id="path950" />
      <path
         style="fill:#2c5788;stroke-width:1.33333"
         d="m 275.33333,460.52587 c -18.25848,-1.28906 -53.38867,-7.1864 -57.33334,-9.62458 -0.73333,-0.45328 -2.53333,-1.00192 -4,-1.21923 -8.57018,-1.26976 -39.44453,-13.4384 -52.62405,-20.74095 -11.81825,-6.5483 -30.45053,-19.58198 -33.96617,-23.76009 -1.78069,-2.11623 -3.81419,-3.84768 -4.5189,-3.84768 -0.70471,0 -3.18295,-2.25 -5.50719,-5 -2.32425,-2.75 -5.86984,-6.81127 -7.87909,-9.02505 C 100.81406,377.73315 89.980431,359.25302 83.985127,343.7769 78.345749,329.21955 65.194978,273.55914 54.110565,217.33334 43.916572,165.62419 42.152578,158.27916 37.847018,149.61414 32.264846,138.3799 27.355767,134.05307 17.204374,131.41983 c -3.918716,-1.01651 -7.342812,-2.50181 -7.609101,-3.30067 -0.2662892,-0.79887 -1.189834,-1.45249 -2.0523219,-1.45249 -0.8624879,0 -2.2462355,-1.08577 -3.0749947,-2.41283 -3.59908357,-5.76305 -4.36666187,-17.23889 -3.4217439,-51.15749 0.8864073,-31.818317 1.1507066,-34.502823 3.7412403,-38 1.5404172,-2.079539 5.1194144,-4.47201 8.0000002,-5.347803 2.8669,-0.871633 32.212546,-4.084644 65.212545,-7.140024 C 111,19.553143 149.47378,15.637011 163.49732,13.906008 226.04211,6.1857468 286.77095,3.1860083 337.68804,5.3017479 401.3435,7.9467994 433.63602,12.055082 484.66665,24.00049 c 39.08939,9.150165 72.2653,16.280059 90,19.342065 6.96667,1.202839 13.56667,2.53809 14.66667,2.967224 1.1,0.429135 2.50129,0.66789 3.114,0.530567 0.61269,-0.137323 4.51269,0.358893 8.66666,1.102703 22.53524,4.035158 50.6385,6.941602 67.55267,6.986308 35.95911,0.09504 101.64736,-10.914751 184.5419,-30.930463 15.33856,-3.703648 30.33155,-6.976971 33.31776,-7.274051 2.9862,-0.29708 5.94884,-0.861139 6.58364,-1.253465 1.51952,-0.939119 38.28303,-5.7402739 56.89003,-7.4295931 63.44502,-5.7601354 144.80402,-3.7950491 215.33332,5.2010031 10.6333,1.356288 48.7333,5.274152 84.6667,8.706366 35.9333,3.432213 67.6789,6.947741 70.5458,7.812284 2.8942,0.872746 6.4524,3.245613 8,5.334912 2.5906,3.497177 2.8549,6.181683 3.7413,38 0.9783,35.11594 0.1879,45.57092 -3.9189,51.83872 -1.0963,1.67312 -2.5276,2.71178 -3.1807,2.30813 -0.6532,-0.40365 -1.1875,-0.12258 -1.1875,0.62459 0,0.74718 -2.55,2.04287 -5.6667,2.87931 -3.1167,0.83645 -7.1667,2.16772 -9,2.95838 -1.8333,0.79066 -3.8069,1.48038 -4.3857,1.53271 -0.5789,0.0523 -3.6324,4.40656 -6.7857,9.67608 -5.7121,9.54573 -5.7785,9.80781 -18.0726,71.33333 -11.3899,57.00056 -23.339,109.24026 -27.0107,118.08598 -1.7493,4.21442 -1.5826,3.68285 -2.9265,9.33309 -0.5669,2.38334 -1.483,4.33334 -2.0359,4.33334 -0.5528,0 -1.0051,0.82469 -1.0051,1.83264 0,2.5226 -7.7153,17.16404 -14.1401,26.83402 -5.9385,8.93804 -33.0664,36.23676 -39.0852,39.33122 -2.1372,1.09882 -4.1858,2.32773 -4.5525,2.7309 -1.9298,2.12188 -9.3362,6.63155 -9.3537,5.69534 -0.011,-0.59994 -0.4613,-0.4219 -1,0.39564 -1.3194,2.00194 -16.313,10.36677 -16.313,9.10086 0,-0.55032 -1.05,-0.0812 -2.3333,1.04264 -6.0654,5.31136 -42.542,16.88404 -68.3333,21.67967 -43.6374,8.11392 -107.43392,3.71485 -158.00002,-10.89483 -8.8,-2.54252 -16.20124,-5.1797 -16.44722,-5.86041 -0.24597,-0.68071 -0.94452,-0.93029 -1.55233,-0.55464 -1.31645,0.81361 -26.66712,-9.90384 -26.66712,-11.274 0,-0.52137 -0.75,-0.95235 -1.66667,-0.95773 -2.52706,-0.0148 -17,-8.50616 -17,-9.97396 0,-0.7066 -0.50913,-0.97008 -1.13141,-0.5855 -0.62227,0.38459 -2.39719,-0.48 -3.94424,-1.9213 -1.54706,-1.44131 -3.23341,-2.62056 -3.74744,-2.62056 -4.49785,0 -50.7516,-44.11876 -49.08346,-46.81787 0.40824,-0.66053 -0.13844,-1.53892 -1.21484,-1.95197 -1.79979,-0.69064 -14.23294,-17.23016 -12.95232,-17.23016 0.31033,0 -1.0349,-1.72549 -2.98938,-3.83442 -1.95449,-2.10892 -3.22944,-4.35892 -2.83324,-5 0.39622,-0.64107 0.21434,-1.16559 -0.40417,-1.16559 -1.10443,0 -5.89156,-7.23769 -5.72757,-8.65956 0.046,-0.39906 -0.97883,-1.86918 -2.27746,-3.2669 -3.4759,-3.74118 -21.82421,-39.49934 -20.79572,-40.52783 0.48347,-0.48348 0.24408,-0.87904 -0.53198,-0.87904 -1.32723,0 -3.72883,-6.15388 -3.25215,-8.33333 0.12027,-0.55 -0.41669,-1 -1.19331,-1 -0.77661,0 -1.0412,-0.6 -0.58797,-1.33334 0.45323,-0.73333 0.31049,-1.33333 -0.31719,-1.33333 -1.07526,0 -12.24636,-25.75433 -12.82304,-29.56279 -0.14745,-0.9738 -0.74606,-2.5358 -1.33024,-3.47112 -2.04233,-3.2699 -9.94532,-28.10586 -9.18533,-28.86585 0.4218,-0.4218 0.0669,-0.76691 -0.78864,-0.76691 -0.85556,0 -1.55556,-0.88289 -1.55556,-1.96198 0,-1.07908 -1.46698,-5.27908 -3.25996,-9.33334 -1.79298,-4.05424 -2.84298,-7.38053 -2.33333,-7.39176 0.50964,-0.0107 0.31349,-0.46122 -0.43588,-1 -0.74937,-0.53877 -3.88463,-4.89878 -6.96723,-9.68892 -4.87997,-7.5831 -24.33693,-28.44561 -24.33693,-26.09498 0,0.47218 -2.55,-0.46115 -5.66667,-2.07408 -8.45058,-4.37331 -25.83621,-4.9902 -35.66666,-1.26555 -14.70891,5.57304 -30.42232,21.65653 -39.90098,40.84071 -2.18216,4.41656 -7.0261,16.88438 -10.76433,27.7063 -3.73822,10.82191 -8.06598,22.50836 -9.61724,25.9699 -1.55126,3.46154 -2.72229,6.7437 -2.6023,7.2937 0.12,0.55 -0.41723,1 -1.19384,1 -0.77662,0 -1.1175,0.47656 -0.75752,1.05902 0.35998,0.58245 -0.59592,3.73245 -2.12423,7 -1.52831,3.26754 -2.93827,6.71784 -3.13325,7.66732 -1.62878,7.93113 -35.24964,69.607 -37.94431,69.607 -0.71243,0 -1.14533,0.46021 -0.962,1.02269 0.47627,1.46124 -8.37272,14.97731 -9.80567,14.97731 -0.65688,0 -1.19433,0.80016 -1.19433,1.77815 0,0.97798 -2.30408,4.2739 -5.12016,7.32428 -2.81609,3.05037 -4.90579,5.76052 -4.64376,6.02253 0.46997,0.46997 -27.06027,28.65208 -32.23608,32.99937 -4.43079,3.72152 -18.59307,13.2054 -19.72241,13.20726 -0.58067,9.6e-4 -2.38067,1.2406 -4,2.75474 -5.06799,4.7388 -36.86524,19.52691 -54.27759,25.24314 -20.52618,6.73848 -50.08237,12.81552 -74.34641,15.28636 -19.67238,2.00326 -52.78834,3.3438 -63.65358,2.5767 z m 72.64807,-23.79609 c 18.08915,-3.11236 36.36936,-7.94509 53.66343,-14.18697 8.262,-2.98198 15.77183,-5.47402 16.68849,-5.53784 0.91667,-0.0639 1.66667,-0.49554 1.66667,-0.95934 0,-0.90048 8.6832,-4.32708 10.15667,-4.00806 0.48318,0.10466 1.2456,-0.34476 1.69426,-0.99862 0.44866,-0.65384 4.81886,-3.36796 9.71155,-6.03137 4.89269,-2.66341 11.19269,-6.29253 14,-8.06471 2.80731,-1.77217 5.52836,-3.1593 6.04679,-3.0825 0.51844,0.0768 1.84936,-1.06036 2.9576,-2.52703 1.10824,-1.46667 2.03406,-2.24393 2.0574,-1.72727 0.0233,0.51667 1.46275,-0.38333 3.19874,-2 1.73599,-1.61666 8.21296,-7.4394 14.39327,-12.9394 6.18032,-5.5 12.83009,-12.1 14.77729,-14.66666 1.94719,-2.56667 6.59537,-8.56667 10.32929,-13.33334 C 513.05676,341.9 519.47248,332.6 523.57999,326 c 4.1075,-6.6 8.13234,-12.44081 8.94409,-12.97958 0.81175,-0.53878 1.01836,-0.98878 0.45915,-1 -1.22891,-0.0247 8.1538,-19.01142 9.96718,-20.16948 0.70254,-0.44867 1.22234,-1.34867 1.1551,-2 -0.18174,-1.76071 6.95386,-18.38719 8.2973,-19.33334 0.63706,-0.44866 1.00375,-1.04866 0.8149,-1.33333 -0.18886,-0.28468 3.91677,-13.4176 9.12361,-29.18427 12.7624,-38.6454 14.32616,-46.50693 14.32177,-72 -0.003,-17.48662 -0.46678,-22.26677 -3.01392,-31.06557 C 570.37596,125.62743 564.6576,113.42988 558.20913,104 554.307,98.293748 537.33332,79.39003 537.33332,80.750449 c 0,0.354692 -3.05719,-1.771676 -6.79376,-4.725261 -3.73656,-2.953587 -10.78656,-7.587336 -15.66667,-10.297223 -4.88009,-2.709887 -9.07414,-5.411007 -9.32012,-6.002489 -0.24597,-0.591483 -0.99597,-0.736275 -1.66666,-0.32176 -0.6707,0.414516 -1.21946,0.218253 -1.21946,-0.436136 0,-0.654391 -0.75,-1.229008 -1.66666,-1.276927 -0.91667,-0.04792 -8.14568,-2.573419 -16.06447,-5.61222 -17.60121,-6.754391 -40.34058,-12.581856 -63.87934,-16.370495 -16.3335,-2.628927 -23.94211,-2.894372 -97.05619,-3.386038 -52.8099,-0.355126 -84.23682,-0.03367 -94,0.961498 -20.78957,2.119096 -45.01481,7.250793 -60.25765,12.76454 -7.19162,2.601403 -13.65222,4.854827 -14.3569,5.007609 -0.70468,0.152783 -1.90468,0.759208 -2.66667,1.347612 -0.76199,0.588404 -4.98544,3.414454 -9.38544,6.28011 -15.24175,9.926729 -26.74636,24.062727 -37.4237,45.983401 -12.647042,25.9645 -18.797051,54.10807 -20.104083,92 -0.59153,17.14892 -0.247381,26.72383 1.413751,39.33333 2.919002,22.15788 10.557402,59.8933 15.645722,77.2934 2.25814,7.72196 4.29139,14.93994 4.51833,16.03994 0.22694,1.1 0.45852,2.15 0.51463,2.33333 0.0561,0.18333 0.0508,0.71625 -0.0119,1.18427 -0.0626,0.468 0.39366,1.218 1.014,1.66666 0.62034,0.44866 2.62158,4.11574 4.44721,8.14907 12.40278,27.40124 43.94413,60.60107 69.986,73.66595 6.48489,3.25339 29.89853,11.21353 42,14.27911 3.3,0.83597 6.9,1.86746 8,2.29224 1.1,0.42476 3.2,0.89606 4.66666,1.04734 1.46667,0.15128 8.96667,1.26286 16.66667,2.47015 21.32755,3.34401 21.39199,3.3476 52,2.90192 18.62925,-0.27125 33.09529,-1.17939 41.31474,-2.5936 z m -0.37698,-105.43834 c -1.31758,-1.81029 -3.11758,-3.31117 -4,-3.33529 -0.88244,-0.0241 -3.98832,-2.42413 -6.90198,-5.33333 -2.91364,-2.90922 -5.92123,-5.28948 -6.68353,-5.28948 -0.76229,0 -2.5784,-1.59906 -4.03578,-3.55344 -3.89891,-5.22854 -5.97323,-7.11323 -7.82892,-7.11323 -0.91042,0 -3.37982,-1.8 -5.48755,-4 -2.10773,-2.2 -4.91999,-4 -6.24945,-4 -1.32947,0 -2.41722,-0.71717 -2.41722,-1.59371 0,-2.04822 -6.70078,-9.07296 -8.65456,-9.07296 -0.81894,0 -3.5244,-2.1 -6.0121,-4.66666 -2.48771,-2.56667 -5.00698,-4.66667 -5.59836,-4.66667 -0.59139,0 -3.24351,-2.4 -5.89359,-5.33333 C 275.19129,270.4 272.52987,268 271.92714,268 c -0.60275,0 -3.06664,-1.8 -5.47533,-4 -2.4087,-2.2 -4.83338,-4 -5.38818,-4 -0.5548,0 -3.5598,-2.76758 -6.67777,-6.1502 -3.11799,-3.38261 -7.03035,-6.66776 -8.69413,-7.30033 C 241.64331,245.01026 241.7857,236 245.85845,236 c 0.86524,0 4.43141,-2.7 7.92485,-6 3.49343,-3.3 6.85916,-6 7.4794,-6 0.62024,0 3.10324,-2.25 5.51777,-5 2.41454,-2.75 4.83196,-5 5.37206,-5 0.5401,0 3.18456,-1.95 5.87658,-4.33333 2.69202,-2.38333 5.25023,-4.33333 5.68492,-4.33333 0.43468,0 2.92686,-2.04408 5.53815,-4.5424 12.79545,-12.24184 16.47619,-15.40328 18.78743,-16.13684 1.38046,-0.43815 3.99754,-2.56455 5.81574,-4.72536 1.8182,-2.1608 3.82686,-3.92874 4.46367,-3.92874 0.63683,0 3.19327,-2.1 5.68097,-4.66666 2.48771,-2.56667 5.229,-4.66667 6.09175,-4.66667 0.86275,0 4.0574,-2.7 7.09924,-6 3.04182,-3.3 6.02525,-6 6.62982,-6 0.60458,0 2.1852,-1.2 3.51252,-2.66667 4.39835,-4.86012 8.50142,-3.42921 17.61367,6.1426 4.61248,4.8451 8.38633,9.528 8.38633,10.40647 0,0.87847 -2.83142,3.96431 -6.29206,6.85741 -3.46064,2.89311 -7.68791,6.61019 -9.39394,8.26019 -1.70604,1.65 -3.55284,3 -4.10401,3 -0.55117,0 -3.34567,2.4 -6.20999,5.33333 -2.86432,2.93334 -5.84268,5.33334 -6.61856,5.33334 -0.77589,0 -2.89753,1.8 -4.71477,4 -1.81724,2.2 -3.97638,4 -4.7981,4 -0.82172,0 -3.52831,2.09361 -6.01464,4.65246 -2.48632,2.55887 -4.91908,4.65887 -5.40612,4.66667 -0.48704,0.008 -3.04796,2.1142 -5.69092,4.68087 C 311.44725,221.9 308.67335,224 307.92599,224 c -0.74734,0 -4.00098,2.55 -7.2303,5.66667 -3.22932,3.11667 -7.62466,7.12157 -9.76742,8.89979 l -3.89593,3.23312 3.34519,3.10021 c 1.83985,1.70512 3.8344,3.10021 4.4323,3.10021 0.59791,0 3.48394,2.25 6.41339,5 7.35411,6.90362 15.59165,13.66667 16.64628,13.66667 0.48324,0 2.72245,2.1 4.97601,4.66667 2.25358,2.56666 4.74132,4.66666 5.52835,4.66666 0.78703,0 3.57488,2.03698 6.19521,4.5266 8.97997,8.53204 17.06279,15.4734 18.01789,15.4734 0.52548,0 3.26135,2.4 6.0797,5.33334 2.81834,2.93333 5.7713,5.33333 6.56213,5.33333 0.79083,0 1.43787,0.49861 1.43787,1.10803 0,0.60941 1.5,1.9108 3.33333,2.89197 1.83333,0.98117 3.33333,2.78256 3.33333,4.00308 0,3.28048 -17.22805,20.00521 -20.55556,19.95503 -1.52777,-0.0231 -3.85578,-1.52306 -5.17334,-3.33334 z M 1066,438.64063 c 17.0858,-1.90434 36.6049,-5.91881 55.5842,-11.43192 9.0287,-2.62265 17.0158,-4.86752 17.7491,-4.98858 0.7333,-0.12107 1.6333,-0.53668 2,-0.92359 1.1114,-1.17273 11.2498,-5.41261 12.5176,-5.23484 0.6513,0.0913 1.5513,-0.39548 2,-1.08183 0.4487,-0.68634 3.5157,-2.92678 6.8157,-4.97876 10.0887,-6.27322 24.5276,-19.08878 33.4857,-29.72097 4.6829,-5.55793 9.5643,-11.19467 10.8477,-12.52607 1.2833,-1.3314 2.0045,-2.42073 1.6026,-2.42073 -0.4019,0 1.0183,-2.55 3.156,-5.66667 12.8586,-18.74683 23.302,-51.90664 31.5992,-100.33333 9.7155,-56.70406 5.4072,-108.34823 -12.5044,-149.89456 -10.4129,-24.153112 -27.3758,-44.484523 -45.5201,-54.559754 -18.2156,-10.1148 -48.982,-18.488299 -79.3333,-21.59162 -9.7839,-1.000367 -40.8564,-1.321674 -93.3334,-0.965119 -71.94344,0.48882 -80.14801,0.773615 -95.99996,3.332324 -37.25104,6.012798 -70.59245,16.658324 -92.33333,29.480973 -3.85,2.270706 -7.00918,3.694126 -7.02041,3.163154 -0.0107,-0.530972 -0.46123,-0.337416 -1,0.430126 -0.53877,0.76754 -4.58513,4.141456 -8.99192,7.49759 -18.57704,14.147978 -33.33197,33.709926 -39.55392,52.440216 -1.70523,5.13333 -3.40041,9.63333 -3.76708,10 -1.27816,1.27816 -1.99975,12.79629 -1.96296,31.33333 0.0417,21.05291 2.65676,35.65856 10.61556,59.29156 2.54212,7.5486 4.29983,14.24607 3.90603,14.88326 -0.3938,0.63718 -0.19018,1.15852 0.45252,1.15852 0.64269,0 2.23804,3.45 3.54522,7.66666 1.30718,4.21667 3.782,11.26667 5.4996,15.66667 1.7176,4.4 3.30766,8.87655 3.53347,9.94789 0.22581,1.07135 0.87555,2.57135 1.44387,3.33334 0.56832,0.76198 3.94874,7.43102 7.51205,14.82009 3.56331,7.38905 9.24831,17.99708 12.63335,23.57337 3.38505,5.5763 6.15462,10.73071 6.15462,11.45424 0,0.72354 0.45,1.51551 1,1.75996 1.13486,0.50438 16.89252,21.41961 16.90979,22.44445 0.007,0.36666 1.57192,1.9799 3.47944,3.58497 1.90751,1.60507 5.097,5.26864 7.08775,8.14129 1.99074,2.87266 5.13165,5.91198 6.9798,6.75404 2.10732,0.96016 3.00394,2.15038 2.40464,3.19203 -0.52559,0.91355 -0.50051,1.25208 0.0557,0.75229 0.55624,-0.49978 4.22779,1.71112 8.15897,4.91311 3.93119,3.202 10.92227,8.36929 15.53573,11.48289 4.61348,3.11359 8.58938,6.15643 8.83535,6.76187 0.24597,0.60543 0.99597,0.76164 1.66667,0.34712 0.67069,-0.41451 1.21945,-0.11827 1.21945,0.65836 0,0.77661 0.45,1.29347 1,1.14856 0.55,-0.14489 5.24869,1.91163 10.44155,4.57007 30.5959,15.66332 70.59465,27.44786 104.55845,30.80532 10.7672,1.06437 48.2248,0.76684 59.3334,-0.4713 z m -163.33336,-81.4824 c 0,-2.21872 4.42351,-16.34557 5.37271,-17.15823 0.98804,-0.84589 4.47532,-9.39458 4.84075,-11.86652 0.15176,-1.02658 1.06581,-2.3674 2.03124,-2.97958 0.96541,-0.61219 1.1853,-1.12226 0.48864,-1.13348 -0.69667,-0.0107 -0.54667,-0.74042 0.33333,-1.62042 0.88,-0.88 1.6,-2.68 1.6,-4 0,-1.32 0.52203,-2.4 1.16005,-2.4 0.63803,0 1.93114,-2.85 2.87356,-6.33333 0.94243,-3.48333 2.2152,-6.98853 2.82839,-7.78935 0.61317,-0.8008 0.72007,-1.8508 0.23755,-2.33333 -0.48254,-0.48252 0.22268,-0.87732 1.56712,-0.87732 1.34444,0 2.04965,-0.3948 1.56712,-0.87732 -0.48252,-0.48253 -0.37563,-1.53253 0.23754,-2.33333 0.61319,-0.80082 1.91356,-4.45602 2.88974,-8.12268 0.97617,-3.66667 2.12501,-6.96667 2.55298,-7.33334 0.95975,-0.82226 4.37346,-8.01565 7.59298,-16 1.33065,-3.3 2.82384,-6.3 3.31818,-6.66666 0.49435,-0.36667 1.58398,-3.36667 2.4214,-6.66667 1.76419,-6.95209 5.68851,-15.96244 6.9619,-15.98471 0.48134,-0.008 0.56137,-1.21529 0.17782,-2.68196 -0.38988,-1.49092 -0.0409,-2.66666 0.7915,-2.66666 0.81886,0 1.48884,-0.9 1.48884,-2 0,-1.1 0.53322,-2 1.18494,-2 0.65172,0 1.57891,-2.1 2.06042,-4.66667 C 959.72684,218.1 960.64391,216 961.28324,216 c 0.63934,0 1.81579,-3.04649 2.61434,-6.76998 0.79854,-3.7235 2.34826,-7.66635 3.44381,-8.76191 1.09556,-1.09556 1.99192,-3.44905 1.99192,-5.23001 0,-1.78095 0.47947,-3.2381 1.06548,-3.2381 1.23369,0 4.93351,-9.3126 4.53495,-11.41464 -0.14754,-0.77805 0.96262,-2.73581 2.46702,-4.35058 1.50439,-1.61479 2.39914,-3.47983 1.98831,-4.14455 -0.41081,-0.66471 0.0735,-2.02897 1.07619,-3.03169 1.00272,-1.00272 2.56736,-4.2011 3.47698,-7.1075 0.90963,-2.9064 2.74574,-7.4181 4.08024,-10.026 1.33451,-2.60789 2.84216,-6.95789 3.35032,-9.66666 0.50818,-2.70878 1.45718,-4.92504 2.1089,-4.92504 0.65172,0 1.18494,-1.2 1.18494,-2.66667 0,-1.46667 0.66419,-2.66667 1.47599,-2.66667 0.81179,0 1.14968,-0.85034 0.75085,-1.88965 -0.39881,-1.03931 0.1056,-2.20841 1.1208,-2.59801 1.01527,-0.38959 2.53602,-3.28924 3.37952,-6.44368 0.8435,-3.15443 2.0697,-6.39053 2.725,-7.19134 0.6552,-0.8008 0.7966,-1.8508 0.3141,-2.33333 -0.4826,-0.48253 0.1038,-0.87732 1.303,-0.87732 1.2546,0 1.8946,-0.74487 1.5072,-1.75434 -0.3703,-0.96488 0.2448,-3.51488 1.3669,-5.66666 1.1221,-2.15179 2.0439,-4.898142 2.0484,-6.103017 0.012,-3.252421 2.7583,-3.809318 18.784,-3.809318 10.7656,0 14.5535,0.434133 14.5417,1.666666 -0.045,4.737963 -4.6899,17.901529 -9.4032,26.648579 -0.6862,1.27338 -1.2476,3.22338 -1.2476,4.33333 0,1.10995 -0.6,2.01809 -1.3333,2.01809 -0.7334,0 -1.2685,0.45 -1.1892,1 0.2693,1.86747 -1.7835,7 -2.7997,7 -0.5561,0 -1.3711,1.79999 -1.8111,3.99996 -0.44,2.19999 -2.015,6.66707 -3.5,9.92686 -1.485,3.25978 -2.7,6.5598 -2.7,7.33337 0,0.77356 -0.5233,1.40648 -1.1629,1.40648 -0.6397,0 -1.5399,2.35743 -2.0007,5.23872 -0.4607,2.88131 -1.7757,6.17669 -2.9221,7.32311 -1.1464,1.14641 -1.7406,2.64061 -1.3204,3.32045 0.4202,0.67984 -0.025,2.03444 -0.9896,3.01023 -1.9744,1.99764 -4.1368,6.5919 -3.816,8.10749 0.1164,0.55 -0.3216,1 -0.9733,1 -0.6517,0 -1.5789,2.1 -2.0604,4.66667 -0.4815,2.56666 -1.4837,4.66666 -2.2271,4.66666 -0.7434,0 -0.9645,0.62628 -0.4914,1.39174 0.473,0.76546 0.2704,2.11546 -0.4503,3 -0.7207,0.88454 -2.08126,4.30826 -3.0234,7.60826 -0.94214,3.3 -2.78638,7.56774 -4.0983,9.48384 -1.31194,1.91611 -2.00307,3.86611 -1.53584,4.33334 0.46722,0.46722 0.14949,0.84949 -0.70606,0.84949 -0.85556,0 -1.55556,1.5 -1.55556,3.33333 0,1.83334 -0.45,3.33719 -1,3.34191 -0.55,0.005 -2.4671,3.90472 -4.26024,8.66667 -1.79313,4.76194 -3.6297,8.65809 -4.08126,8.65809 -0.45158,0 -1.58991,3 -2.52964,6.66667 C 977.85575,257 976.6378,260 976.08894,260 c -0.54887,0 -1.74511,3.33867 -2.65831,7.41926 -0.91319,4.08058 -2.50523,7.74345 -3.53784,8.1397 -1.03263,0.39626 -1.54553,1.2576 -1.1398,1.91408 0.40573,0.6565 0.10227,1.19363 -0.67432,1.19363 -0.77661,0 -1.41203,1.2 -1.41203,2.66667 0,1.46666 -0.47473,2.66666 -1.05496,2.66666 -0.58022,0 -2.20549,4.2 -3.6117,9.33334 -1.40622,5.13333 -3.0043,9.33333 -3.5513,9.33333 -0.54698,0 -1.41381,2.23495 -1.92626,4.96655 -0.51246,2.73161 -1.73964,5.77446 -2.72708,6.7619 -0.98746,0.98746 -1.79536,2.6525 -1.79536,3.70012 0,1.04762 -0.63772,1.90476 -1.41715,1.90476 -0.77943,0 -1.26404,1.05 -1.07691,2.33334 0.18714,1.28333 -0.9729,4.43333 -2.57786,7 C 945.3231,331.9 944.0077,335.35 944.00496,337 c -0.003,1.65 -0.6404,3 -1.41701,3 -0.77661,0 -1.0412,0.6 -0.58797,1.33334 0.45322,0.73333 0.18864,1.33333 -0.58798,1.33333 -0.77661,0 -1.41202,1.5 -1.41202,3.33334 0,1.83333 -0.5132,3.33333 -1.14046,3.33333 -0.62725,0 -1.69874,1.95 -2.38112,4.33333 l -1.24066,4.33334 -16.28555,0.37437 c -11.93292,0.27431 -16.28555,-0.0507 -16.28555,-1.21615 z M 1044.3333,323.16435 C 1039.75,318.30784 1036,313.6262 1036,312.7607 c 0,-0.86551 2.8314,-3.94074 6.292,-6.83384 3.4607,-2.89311 7.6879,-6.61019 9.394,-8.26019 1.706,-1.65 3.5528,-3 4.104,-3 0.5512,0 3.3457,-2.4 6.21,-5.33333 2.8643,-2.93334 5.8427,-5.33334 6.6185,-5.33334 0.7759,0 2.8976,-1.8 4.7148,-4 1.8172,-2.2 3.9764,-4 4.7981,-4 0.8217,0 3.5283,-2.09361 6.0147,-4.65246 2.4863,-2.55887 4.919,-4.65887 5.4061,-4.66667 0.487,-0.008 3.0479,-2.1142 5.6909,-4.68087 2.643,-2.56666 5.4168,-4.66666 6.1642,-4.66666 0.7474,0 4.001,-2.55 7.2303,-5.66667 3.2293,-3.11667 7.6247,-7.12157 9.7674,-8.89979 l 3.896,-3.23312 -3.3452,-3.10021 c -1.8399,-1.70512 -3.8344,-3.10021 -4.4323,-3.10021 -0.5979,0 -3.484,-2.25 -6.4134,-5 -7.3541,-6.90362 -15.5917,-13.66667 -16.6463,-13.66667 -0.4832,0 -2.7225,-2.1 -4.976,-4.66667 -2.2536,-2.56666 -4.7413,-4.66666 -5.5284,-4.66666 -0.787,0 -3.5748,-2.03698 -6.1952,-4.5266 -8.9799,-8.53204 -17.0628,-15.4734 -18.0179,-15.4734 -0.5254,0 -3.2613,-2.4 -6.0797,-5.33334 -2.8183,-2.93333 -5.7713,-5.33333 -6.5621,-5.33333 -0.7908,0 -1.4379,-0.49861 -1.4379,-1.10803 0,-0.60941 -1.5,-1.9108 -3.3333,-2.89197 C 1037.5,169.6855 1036,167.88411 1036,166.66359 c 0,-3.09761 17.2092,-19.99692 20.3636,-19.99692 1.4223,0 3.7658,1.5 5.2079,3.33333 1.4421,1.83334 3.3285,3.35307 4.1919,3.37719 0.8635,0.0241 3.9538,2.42413 6.8675,5.33333 2.9136,2.90922 5.9212,5.28948 6.6835,5.28948 0.7623,0 2.5784,1.59906 4.0358,3.55344 3.8989,5.22854 5.9732,7.11323 7.8289,7.11323 0.9104,0 3.3798,1.8 5.4875,4 2.1078,2.2 4.92,4 6.2495,4 1.3295,0 2.4172,0.78775 2.4172,1.75055 0,2.01418 6.8209,8.91612 8.8114,8.91612 0.7327,0 3.3676,2.1 5.8553,4.66666 2.4877,2.56667 5.0069,4.66667 5.5983,4.66667 0.5914,0 3.2435,2.4 5.8936,5.33333 2.6501,2.93334 5.3115,5.33334 5.9143,5.33334 0.6027,0 3.0666,1.8 5.4753,4 2.4087,2.2 4.8334,4 5.3882,4 0.5548,0 3.5598,2.76758 6.6777,6.1502 3.118,3.38261 7.0304,6.66776 8.6942,7.30033 4.0484,1.53921 3.906,10.54947 -0.1667,10.54947 -0.8653,0 -4.4315,2.7 -7.9249,6 -3.4934,3.3 -6.8592,6 -7.4794,6 -0.6202,0 -3.1032,2.25 -5.5178,5 -2.4145,2.75 -4.8319,5 -5.372,5 -0.5401,0 -3.1846,1.95 -5.8766,4.33333 -2.692,2.38333 -5.2502,4.33333 -5.6849,4.33333 -0.4347,0 -2.9269,2.04408 -5.5382,4.5424 -12.7954,12.24184 -16.4762,15.40328 -18.7874,16.13684 -1.3805,0.43815 -3.9976,2.56455 -5.8158,4.72536 -1.8182,2.1608 -3.8268,3.92874 -4.4636,3.92874 -0.6368,0 -3.1933,2.1 -5.681,4.66666 -2.4877,2.56667 -5.229,4.66667 -6.0917,4.66667 -0.8628,0 -4.0574,2.7 -7.0993,6 -3.0418,3.3 -6.0252,6 -6.6298,6 -0.6046,0 -2.1852,1.2 -3.5125,2.66667 -4.4296,4.89465 -8.5996,3.43856 -17.6667,-6.16899 z"
         id="path948" />
    </g>
  </g>
</svg>
